<?xml version="1.0" encoding="utf-8"?>
<!-- Generator: Adobe Illustrator 24.0.0, SVG Export Plug-In . SVG Version: 6.00 Build 0)  -->
<svg version="1.1" id="圖層_1" xmlns="http://www.w3.org/2000/svg" xmlns:xlink="http://www.w3.org/1999/xlink" x="0px" y="0px"
	 viewBox="0 0 330 105" style="enable-background:new 0 0 330 105;" xml:space="preserve">
<style type="text/css">
	.st0{fill:none;stroke:#593300;stroke-width:2.3524;stroke-linecap:round;stroke-linejoin:round;stroke-miterlimit:10;}
	.st1{fill:#593300;}
	.st2{fill:none;stroke:#593300;stroke-width:0.588;stroke-linecap:round;stroke-linejoin:round;stroke-miterlimit:10;}
	.st3{fill:#C90001;}
	.st4{fill:#FFFFFF;}
	.st5{font-family:'DFFangSong-W6-HK-BF';}
	.st6{font-size:58.2535px;}
	.st7{font-family:'AvenirNextCondensed-UltraLight';}
	.st8{font-size:25.8846px;}
</style>
<g>
	<g>
		<path class="st0" d="M19.2,39.6c0,0,10.3-2.5,10.3,8.6s1.8,45.3,33.7,45.3L52.5,101"/>
		<path class="st0" d="M127,39.6c0,0-10.3-2.5-10.3,8.6S114.9,93.5,83,93.5l10.7,7.5"/>
		<g>
			<path class="st1" d="M92.5,14.8c-0.8-3.1-2.3-6.1-4.8-8.1s-5.9-2.1-8.8-1.1c-1.4,0.5-2.7,1.4-3.4,2.6c-0.7,1.3-0.9,2.8-0.8,4.3
				c0.2,3.1,1.3,6.1,2.6,8.9c2.6,5.8,6.1,11.1,9.8,16.4l2.8,3.9c0.9,1.3,2,2.6,2.8,4c1.8,2.8,3.1,5.9,3.8,9.2
				c1.5,6.5,0.8,13.6-2.5,19.5c-1.7,2.9-4.1,5.6-7.2,7.1c-3.1,1.6-6.9,1.8-10.2,0.6c-1.6-0.6-3.2-1.8-4.2-3.2
				c-1-1.4-1.6-3.1-1.8-4.8c-0.3-1.7-0.2-3.4,0.1-5c0.2-1.7,0.8-3.2,1.1-4.8c0.8-3.1,1.4-6.2,1.3-9.4c-0.1-1.6-0.4-3.1-1.1-4.6
				c-0.7-1.4-1.8-2.6-3.3-3.4c1.5,0.6,2.8,1.8,3.6,3.2c0.8,1.4,1.2,3.1,1.4,4.7c0.3,3.3-0.2,6.5-0.8,9.7c-0.3,1.6-0.8,3.1-0.9,4.7
				c-0.2,1.5-0.1,3.1,0.1,4.6c0.3,1.5,0.8,2.9,1.7,4s2.1,2,3.5,2.4c2.8,0.9,6,0.7,8.6-0.6c2.6-1.3,4.8-3.7,6.2-6.3
				c3-5.4,3.5-11.9,2.2-17.9c-0.7-3-1.8-5.9-3.5-8.6c-0.8-1.3-1.7-2.6-2.7-3.9l-2.8-4c-3.6-5.4-7-10.9-9.6-16.9
				c-1.2-3-2.3-6.2-2.5-9.6c-0.1-1.7,0.2-3.5,1.2-5c0.9-1.5,2.6-2.5,4.2-3c1.6-0.4,3.3-0.6,5-0.4c1.6,0.3,3.2,1,4.5,2.1
				C90.7,8.4,92,11.6,92.5,14.8z"/>
		</g>
		<g>
			<path class="st1" d="M79.9,47.1c1.3,0.5,2.4,1.5,3.2,2.6c0.8,1.1,1.4,2.4,1.8,3.7s0.6,2.7,0.6,4.1c0,0.7-0.1,1.4-0.1,2
				c-0.1,0.7-0.3,1.3-0.5,2c-0.2-0.7-0.3-1.3-0.4-2c-0.1-0.6-0.3-1.3-0.4-1.9c-0.3-1.3-0.5-2.5-0.9-3.7
				C82.5,51.5,81.6,49.2,79.9,47.1z"/>
		</g>
		<path class="st2" d="M24.3,61H39c1.6,0,2.9,1.3,2.9,2.9l0,0c0,1.6-1.3,2.9-2.9,2.9H18.7c-1.6,0-2.9,1.3-2.9,2.9l0,0
			c0,1.6,1.3,2.9,2.9,2.9h34.8"/>
		<path class="st2" d="M120.6,47.1h-7.2c-0.8,0-1.4,0.6-1.4,1.4l0,0c0,0.8,0.6,1.4,1.4,1.4h10.1c0.8,0,1.4,0.6,1.4,1.4l0,0
			c0,0.8-0.6,1.4-1.4,1.4h-17.2"/>
		<path class="st3" d="M52.8,20L52.8,20c-0.1-1-1-1.9-2.1-1.9c-0.2,0-0.4,0-0.5,0.1v-0.6c0-1.1-0.9-1.9-2.1-1.9S46,16.6,46,17.6v0.6
			c-0.2,0-0.3-0.1-0.5-0.1c-1.1,0-2.1,0.8-2.1,1.9l0,0c-1.2,0-2.1,0.9-2.1,1.9v9.8c0,1.1,0.9,1.9,2.1,1.9l0,0c0,1,1,1.9,2.1,1.9
			c0.2,0,0.4,0,0.5-0.1V36c0,1.1,0.9,1.9,2.1,1.9s2.1-0.9,2.1-1.9v-0.6c0.2,0,0.3,0.1,0.5,0.1c1.1,0,2.1-0.8,2.1-1.9l0,0
			c1.2,0,2.1-0.9,2.1-1.9v-9.8C54.9,20.8,54,20,52.8,20z"/>
		<path class="st1" d="M95.4,81.3c0.6,0.2,1.1,0.5,1.2,1c0.4,1.2-1.1,2.8-3.2,3.6c-2.1,0.8-4.1,0.4-4.5-0.8
			c-0.2-0.6,0.1-1.2,0.6-1.8c-4.8,1.3-10.4,2-16.2-0.2c-13.7-5-30.6-9.1-30.6-2.8s13.7,11.4,30.6,11.4s30.6-5.1,30.6-11.4
			C103.8,77.4,100.5,79.2,95.4,81.3z"/>
		<g>
			<path class="st4" d="M47.3,24.1c0,0.2-0.1,0.2-0.2,0.2c-0.1,0-0.1-0.1-0.3-0.2c-0.1-0.1-0.2-0.2-0.2-0.2s0,0.2,0,0.6
				c0,0.1,0,0.1,0,0.2s0,0.1-0.1,0.1v0.1c0,0.1,0,0.1,0,0.1c0,0.1,0.1,0.1,0.1,0.1c0,0.3,0,0.5,0,0.6c0,0.2,0,0.3,0,0.4
				s-0.1,0.2-0.2,0.2c-0.1,0-0.1,0-0.1-0.1v-0.1v-0.5v-0.3c0-0.1,0-0.2,0.1-0.3s0.1-0.2,0.1-0.2s0,0,0-0.1s0-0.1,0-0.1
				c0-0.1,0-0.2-0.1-0.4c0-0.1,0-0.1,0-0.2s0-0.2,0-0.2s-0.1,0-0.1,0.1L45.9,24c-0.1,0-0.1,0-0.2,0.1c0,0,0,0,0,0.1
				s-0.1,0.2-0.2,0.3c-0.1,0.1-0.2,0.1-0.3,0.1S45,24.5,45,24.5c0-0.1,0-0.2,0.1-0.2s0.1-0.1,0.3-0.2l0.1-0.1c0,0,0,0,0.1,0
				c0-0.1,0-0.1,0.1-0.3c0.3-0.4,0.4-0.7,0.4-0.9c0-0.1,0-0.2,0-0.2c0-0.1-0.1-0.1-0.2-0.1c0,0-0.1,0-0.3,0h-0.2c0,0-0.1,0-0.1-0.1
				l-0.1-0.1c0-0.1,0-0.1,0.1-0.2c0.1,0,0.1-0.1,0.2-0.1c0.3,0,0.4,0,0.5,0s0.1-0.1,0.2-0.1c0,0,0-0.1,0-0.2c0,0,0,0,0.1-0.1
				c0,0,0-0.1,0.1-0.1c0,0,0,0-0.1-0.1l-0.1-0.1c0,0,0-0.2,0-0.6c0,0,0-0.1,0.1-0.1s0.1-0.1,0.1-0.1c0.2,0,0.3,0.1,0.3,0.2
				s0,0.1,0,0.2V21c0,0.1,0,0.2-0.1,0.2c-0.1,0.1-0.1,0.1-0.1,0.1s0,0,0,0.1s0,0.1,0,0.1c0,0.1,0,0.1,0,0.2s0,0.1,0.1,0.2
				c0.1,0,0.2,0,0.3,0c0.2,0,0.3,0.1,0.3,0.2s0,0.1-0.1,0.1s-0.1,0-0.2,0c-0.2,0-0.3,0.1-0.4,0.2c-0.1,0.1-0.1,0.3-0.1,0.5
				c0,0.1,0.1,0.2,0.1,0.3c0,0.1,0.1,0.2,0.3,0.3C47.2,23.9,47.3,24,47.3,24.1z M50.8,25.8c0,0.1-0.1,0.2-0.2,0.3
				c-0.1,0-0.2,0-0.3,0h-0.9h-0.9c0,0-0.1,0-0.2,0c-0.1,0-0.2,0-0.2,0S48,26.1,48,26c0,0,0,0,0,0h-0.1c-0.1,0-0.1,0.1-0.1,0.1
				c-0.1,0-0.2,0-0.3,0h-0.3c-0.1,0-0.2,0-0.2-0.1s0-0.1,0.1-0.2s0.1-0.1,0.2-0.1c0,0,0,0,0.1,0s0.1,0,0.1,0c0.1,0,0.1,0,0.2,0
				s0.1,0,0.2,0c0,0,0.1,0,0.1,0.1c0.1,0,0.1,0.1,0.1,0.1s0.1,0,0.1-0.1c0.1-0.1,0.1-0.1,0.1-0.1c0.1,0,0.3,0,0.5,0
				c0.1,0,0.3,0,0.4,0c0.1,0,0.5,0,1.3,0C50.7,25.7,50.8,25.7,50.8,25.8z M50.6,21.4c0,0.1,0,0.1-0.1,0.2s-0.1,0.1-0.2,0.1
				c-0.1,0-0.2,0-0.4,0c-0.1,0-0.2,0-0.4,0s-0.3,0-0.4,0.1c-0.1,0.1-0.2,0.1-0.4,0.3c-0.1,0-0.1,0.1-0.3,0.3
				c-0.1,0.1-0.1,0.1-0.2,0.2c-0.1,0.1-0.1,0.1-0.1,0.2c0,0,0,0,0.1,0c0.3,0,0.4,0,0.4,0c0.1,0,0.2,0.1,0.3,0.2
				c0,0.1,0.1,0.2,0.1,0.3c0,0.1,0,0.2,0,0.4v0.1v0.1c0,0,0,0.1,0.1,0.2c0,0.1,0,0.2,0,0.3c0,0.1,0,0.1,0,0.2c0,0,0,0.1,0,0.2
				s0,0.2,0,0.2c0,0.3-0.1,0.5-0.2,0.7c-0.1,0.2-0.4,0.3-0.6,0.3c0,0-0.1,0-0.4-0.1c-0.1,0-0.2-0.1-0.2-0.1c-0.1,0-0.1-0.1-0.1-0.2
				s0.1-0.1,0.3-0.1c0,0,0.1,0,0.2,0.1c0.1,0,0.2,0,0.3,0c0.3,0,0.4-0.2,0.4-0.7v-0.6c0-0.1,0-0.1,0.1-0.3c0,0,0,0-0.1-0.1
				c0-0.1-0.1-0.1-0.1-0.2c0-0.2,0-0.4,0-0.4c0-0.1-0.1-0.1-0.3-0.1c0,0-0.1,0-0.2,0c-0.1,0-0.2,0-0.2,0c-0.1,0-0.2-0.1-0.2-0.2
				s0.1-0.3,0.2-0.4c0.1-0.1,0.2-0.2,0.3-0.3c0.1,0,0.1-0.1,0.2-0.1v-0.1c0-0.1,0-0.1-0.1-0.1s-0.1-0.1-0.2-0.1h-0.1
				c0,0-0.1,0-0.2,0c-0.1,0-0.1,0-0.1,0h-0.1c0,0-0.1,0-0.2,0.1c-0.1,0.1-0.2,0.1-0.3,0.1s-0.1,0-0.2,0c-0.1,0-0.2-0.1-0.2-0.1v-0.1
				c0-0.1,0.1-0.1,0.1-0.1s0.1,0,0.2,0c0.1,0,0.2,0,0.2,0c0.1,0,0.1,0,0.2,0.1c0,0,0.1,0,0.1-0.1c0.1-0.1,0.2-0.1,0.3-0.1
				c0,0,0,0,0.2,0c0.1,0,0.2,0,0.3,0c0,0,0.1,0,0.3,0s0.3,0,0.4,0c0.2,0,0.6,0,1.1,0C50.5,21.2,50.6,21.3,50.6,21.4z M48.4,24.5
				c0,0.2-0.1,0.3-0.4,0.3c0,0,0,0-0.1,0s-0.1,0-0.1,0h-0.1c-0.2,0-0.3-0.1-0.3-0.4c0-0.1,0-0.1,0-0.1v-0.1c0-0.1,0-0.1,0-0.2l0,0
				v-0.1c0-0.1-0.1-0.1,0-0.2v-0.2c0,0,0,0,0-0.1v-0.1c0-0.1,0-0.2,0.1-0.3c0.1-0.1,0.1-0.1,0.2-0.1h0.4c0.1,0,0.2,0,0.3,0.1
				s0.1,0.1,0.1,0.3c0,0.1,0,0.1-0.1,0.2c0,0.1,0,0.1-0.1,0.2v0.1c0,0.1,0,0.1,0,0.3c0,0,0,0.1,0,0.2C48.4,24.4,48.4,24.5,48.4,24.5
				z M48.2,23.8L48.2,23.8c0-0.1-0.1-0.1-0.1-0.2s0-0.1,0-0.2S48,23.3,48,23.3c-0.1,0-0.2,0.1-0.3,0.2c0,0.1-0.1,0.1-0.1,0.2
				s0,0.1,0,0.2V24c0,0,0,0,0,0.1l0,0c0,0.1,0.1,0.2,0.1,0.3c0,0,0.1,0.1,0.2,0.1s0.1,0,0.2-0.1c0,0,0-0.1,0-0.2V24c0,0,0,0,0-0.1
				C48.2,23.9,48.2,23.8,48.2,23.8z M50.8,25c0,0.1,0,0.1-0.1,0.2c-0.1,0-0.1,0.1-0.2,0.1c-0.1,0-0.2-0.1-0.4-0.4
				c-0.1-0.1-0.1-0.1-0.2-0.1c-0.1,0-0.1,0-0.1,0.1c-0.1,0.1-0.1,0.2-0.3,0.3c-0.1,0.1-0.2,0.1-0.3,0.2c-0.1,0-0.1,0-0.1,0L49,25.3
				v-0.1c0.1-0.1,0.2-0.2,0.4-0.3c0.1-0.1,0.2-0.2,0.2-0.4v-0.1c0-0.1-0.1-0.2-0.1-0.3c0-0.1-0.1-0.2-0.1-0.3l0,0v-0.1
				c0-0.1,0-0.1-0.1-0.2s-0.1-0.2-0.1-0.2c0-0.1,0-0.2,0-0.3c-0.1-0.2-0.1-0.3-0.1-0.4c0,0,0,0,0.1-0.1l0,0c0-0.1,0.1-0.1,0.2-0.1
				c0.3,0,0.4,0,0.3,0c0.1,0,0.2,0,0.4,0.1s0.3,0.2,0.3,0.3l0,0c0,0,0,0.1-0.1,0.2c0,0.1,0,0.2-0.1,0.3c0,0.1-0.1,0.1-0.1,0.2
				L50,23.6v0.1c0,0.1,0,0.1,0,0.1c0,0.1,0,0.2-0.1,0.3c0,0.2-0.1,0.3-0.1,0.3c0,0.1,0.1,0.2,0.3,0.4C50.7,24.9,50.8,25,50.8,25z
				 M50.2,23.6c0-0.1,0-0.1,0-0.2s0-0.2,0-0.4c0-0.1-0.1-0.1-0.3-0.1c-0.1,0-0.2,0-0.2,0.1s-0.1,0.2-0.1,0.3v0.1c0,0.1,0,0.1,0,0.2
				s0,0.1,0,0.2c0,0,0.1,0.1,0.1,0.2s0.1,0.2,0.1,0.2s0.1-0.1,0.1-0.2s0.1-0.2,0.1-0.2S50.1,23.6,50.2,23.6z"/>
			<path class="st4" d="M47.8,32.3c0,0.2-0.1,0.4-0.3,0.5S47.2,33,46.9,33h-1c-0.4,0-0.6-0.2-0.6-0.6c0-0.3,0-0.5,0-0.7
				c0,0,0-0.1,0.1-0.1c0-0.1,0.1-0.1,0.1-0.1c0-0.1,0-0.2,0-0.3c0.1-0.4,0.4-0.5,1.1-0.5c0.3,0,0.5,0,0.6,0c0.2,0,0.3,0.1,0.4,0.1
				c0.1,0.1,0.2,0.4,0.2,0.8c0,0.1,0,0.2-0.1,0.2c0,0.1-0.1,0.1-0.1,0.1c0,0.1,0.1,0.1,0.1,0.2C47.8,32.1,47.8,32.2,47.8,32.3z
				 M47.5,31.7c-0.1-0.1-0.1-0.2-0.2-0.3c0-0.1,0-0.2-0.1-0.3c-0.1-0.1-0.3-0.2-0.7-0.2c-0.2,0-0.4,0-0.5,0S45.8,31,45.7,31
				c-0.1,0.1-0.2,0.2-0.2,0.3c0,0,0,0,0,0.1c0,0,0,0.1,0.1,0.1c0,0.1,0.1,0.1,0,0.2c0,0.1,0,0.1,0,0.2c0,0.3,0.1,0.5,0.2,0.5
				c0.1,0,0.3,0.1,0.6,0.1s0.6-0.1,0.7-0.1c0.1-0.1,0.2-0.2,0.2-0.4c0,0,0,0,0.1-0.1C47.5,31.8,47.5,31.7,47.5,31.7L47.5,31.7z
				 M49.8,29.1c0,0.1,0,0.2-0.1,0.3c-0.1,0.1-0.1,0.2-0.2,0.2c-0.2,0.1-0.4,0.1-0.7,0.1s-0.6,0-0.8,0h-0.1c-0.1,0-0.1-0.1-0.1-0.1
				c-0.1,0-0.2,0.1-0.4,0.1c0,0-0.1,0-0.2,0c-0.1,0-0.2,0-0.2,0c-0.3,0-0.4-0.1-0.6-0.2c-0.1-0.1-0.2-0.4-0.2-0.8s0-0.7,0.1-0.9
				c0.1-0.2,0.2-0.3,0.3-0.3h0.1c0.1,0,0.1,0,0.1,0h0.1c0.1-0.1,0.1-0.1,0.2-0.1c0.1,0,0.2,0,0.3,0s0.3,0,0.5,0
				c0.9,0,1.4,0.1,1.6,0.2c0.1,0.1,0.2,0.3,0.2,0.4s0,0.2,0,0.3c0,0.2-0.1,0.3-0.1,0.3s0,0.1,0.1,0.1C49.8,29.1,49.8,29.1,49.8,29.1
				z M49.5,28.9c0,0,0-0.1-0.1-0.1c0-0.1,0-0.1,0-0.1c0-0.1,0-0.2-0.1-0.3c0-0.1-0.1-0.2-0.2-0.2C49,28.1,48.7,28,48.3,28
				c-0.1,0-0.2,0-0.4,0s-0.3,0-0.4,0c-0.2,0-0.4,0-0.5-0.1c0,0,0,0-0.1,0c0,0-0.1,0-0.1,0.1s0,0.1-0.1,0.2s-0.2,0.3-0.2,0.6
				c0,0.3,0,0.4,0.1,0.5s0.2,0.1,0.3,0.1s0.2,0,0.4,0c0,0,0.1,0,0.1,0.1c0.1,0.1,0.1,0.1,0.2,0c0.2-0.1,0.3-0.1,0.4-0.1
				c0.4,0,0.6,0,0.8,0c0.3,0,0.4-0.1,0.4-0.3C49.4,29.1,49.4,29,49.5,28.9C49.5,29,49.5,28.9,49.5,28.9z M50.7,32.2
				c0,0.3,0,0.5-0.2,0.6c-0.1,0.1-0.2,0.1-0.3,0.1s-0.4,0-0.8,0c-0.5,0-0.8,0-0.8,0c-0.1,0-0.2-0.1-0.3-0.3c0,0,0-0.1,0-0.3
				c0-0.1,0-0.2,0.1-0.4v-0.1c0-0.1,0-0.1,0-0.2c0-0.2,0-0.3,0-0.4c0-0.2,0.1-0.3,0.2-0.3c0.1-0.1,0.3-0.1,0.6-0.1s0.7,0,1.2,0.1
				c0.2,0,0.4,0.1,0.4,0.2s0,0.1,0,0.3c0,0.1,0,0.2-0.1,0.3c-0.1,0.1-0.1,0.1-0.1,0.2s0.1,0.1,0.1,0.2C50.7,31.9,50.7,32,50.7,32.2z
				 M50.4,31.4C50.4,31.4,50.4,31.3,50.4,31.4c-0.1-0.1-0.1-0.1-0.1-0.2c-0.1-0.3-0.5-0.4-1.1-0.4c-0.3,0-0.5,0.2-0.5,0.6
				c0,0.1,0,0.2-0.1,0.2s-0.1,0.1-0.1,0.1c0,0.1,0.1,0.1,0.1,0.2c0,0.1,0.1,0.2,0.1,0.4c0,0.1,0.2,0.1,0.6,0.1c0.1,0,0.2,0,0.4,0
				c0.1,0,0.2,0,0.3,0s0.2,0,0.2,0c0.1-0.1,0.2-0.1,0.2-0.2v-0.1V32c0-0.1,0-0.2,0-0.3C50.4,31.5,50.4,31.4,50.4,31.4z"/>
		</g>
	</g>
	<g>
		<text transform="matrix(1 0 0 1 139.7483 59.2802)" class="st1 st5 st6">艾饕</text>
		<text transform="matrix(1.3585 0 0 1 267.2617 38.8535)" class="st1 st7 st8">Aiyi</text>
		<text transform="matrix(1.3585 0 0 1 267.2617 65.5702)" class="st1 st7 st8">Tao</text>
		<g>
			<g>
				<circle class="st3" cx="152.8" cy="84" r="8"/>
				<path class="st4" d="M149.8,84.5h-0.4c-0.1,0-0.2,0-0.2-0.1c0,0-0.1,0-0.1-0.1v0.4c0,1.6-0.3,2.9-0.8,3.9
					c-0.1,0.1-0.1,0.1-0.2,0.1c-0.1,0-0.2,0-0.2-0.1c-0.1-0.1-0.2-0.3-0.1-0.5c0.5-1,0.7-2.3,0.7-3.7v-2.1c0-0.3,0.1-0.5,0.2-0.6
					c0.1-0.1,0.3-0.2,0.6-0.2h8.2c0.1,0,0.2,0,0.3,0.1s0.1,0.1,0.1,0.2s0,0.2-0.1,0.2c-0.1,0.1-0.2,0.1-0.3,0.1h-7.9
					c-0.3,0-0.4,0.1-0.4,0.4V84c0,0,0-0.1,0.1-0.1c0.1-0.1,0.1-0.1,0.2-0.1h1.7v-0.7h-1.3c-0.1,0-0.2,0-0.2-0.1s-0.1-0.1-0.1-0.2
					s0-0.2,0.1-0.2c0.1-0.1,0.1-0.1,0.2-0.1h3.3c0.1,0,0.2,0,0.2,0.1c0.1,0.1,0.1,0.1,0.1,0.2s0,0.2-0.1,0.2
					c-0.1,0.1-0.1,0.1-0.2,0.1h-1.3v0.7h1.7c0.1,0,0.2,0,0.2,0.1c0.1,0.1,0.1,0.1,0.1,0.2s0,0.2-0.1,0.2c-0.1,0.1-0.1,0.1-0.2,0.1
					h-0.4v4.2c0,0.1,0,0.2-0.1,0.3C153,89,153,89,152.9,89c-0.1,0-0.2,0-0.2-0.1c-0.1-0.1-0.1-0.1-0.1-0.3V88l-3.1,0.4
					c-0.1,0-0.2,0-0.3-0.1s-0.1-0.1-0.1-0.2s0-0.2,0.1-0.3c0.1-0.1,0.1-0.1,0.3-0.1l0.6-0.1L149.8,84.5L149.8,84.5z M149.4,81
					c-0.2,0-0.3-0.1-0.4-0.2c-0.1-0.1-0.2-0.3-0.2-0.4v-0.8c0-0.2,0.1-0.3,0.1-0.4c0.1-0.1,0.3-0.2,0.4-0.2h2.8
					c0.2,0,0.3,0.1,0.4,0.2c0.1,0.1,0.1,0.3,0.1,0.4v0.8c0,0.1-0.1,0.3-0.2,0.4S152.2,81,152,81H149.4z M149.7,79.7
					c-0.1,0-0.2,0-0.2,0.1c-0.1,0.1-0.1,0.1-0.1,0.2v0.2c0,0.1,0,0.2,0.1,0.2s0.1,0.1,0.2,0.1h2.1c0.1,0,0.1,0,0.2-0.1
					s0.1-0.1,0.1-0.2V80c0-0.1,0-0.2-0.1-0.2c0-0.1-0.1-0.1-0.2-0.1L149.7,79.7L149.7,79.7z M152.5,85.1v-0.6h-2v0.6H152.5z
					 M152.5,86.3v-0.6h-2v0.6H152.5z M152.5,87.4v-0.5h-2v0.8L152.5,87.4z M153.5,86.1c-0.1,0-0.2,0-0.2-0.1
					c-0.1-0.1-0.1-0.2-0.1-0.2c0-0.1,0-0.2,0.1-0.3c0.6-0.8,0.8-1.8,0.8-2.9c0-0.1,0-0.2,0.1-0.3c0.1-0.1,0.1-0.1,0.2-0.1
					s0.2,0,0.2,0.1c0.1,0.1,0.1,0.4,0.1,0.8h2.7c0.1,0,0.2,0,0.2,0.1c0.1,0.1,0.1,0.1,0.1,0.2s0,0.2-0.1,0.2
					c-0.1,0.1-0.1,0.1-0.2,0.1H157c-0.2,1.2-0.5,2.2-1,3.1c0.5,0.7,1.1,1.2,1.7,1.6c0.1,0.1,0.1,0.1,0.2,0.2c0,0.1,0,0.2,0,0.2
					c-0.1,0.1-0.1,0.1-0.2,0.1h-0.1c-0.6-0.3-1.2-0.8-1.9-1.6c-0.5,0.7-1.2,1.2-2,1.6c-0.1,0.1-0.2,0.1-0.3,0
					c-0.1,0-0.1-0.1-0.2-0.2c0-0.1-0.1-0.2,0-0.3c0-0.1,0.1-0.1,0.2-0.2c0.8-0.4,1.4-0.9,1.9-1.5c-0.4-0.6-0.7-1.2-0.9-2.1
					C154.1,85.6,153.8,86,153.5,86.1z M154,81c-0.2,0-0.3-0.1-0.4-0.1c-0.1-0.1-0.2-0.2-0.1-0.4v-0.8c0-0.1,0.1-0.3,0.1-0.4
					c0.1-0.1,0.3-0.2,0.4-0.2h2.8c0.2,0,0.3,0.1,0.4,0.2c0.1,0.1,0.1,0.2,0.1,0.4v0.8c0,0.1-0.1,0.3-0.1,0.4
					c-0.1,0.1-0.2,0.2-0.4,0.2C156.9,81,154,81,154,81z M154.4,79.6c-0.1,0-0.2,0-0.2,0.1c-0.1,0.1-0.1,0.1-0.1,0.2v0.4
					c0,0.1,0,0.2,0.1,0.2s0.1,0.1,0.2,0.1h2.1c0.1,0,0.1,0,0.2-0.1c0,0,0.1-0.1,0.1-0.2v-0.4c0-0.1,0-0.2-0.1-0.2s-0.1-0.1-0.2-0.1
					H154.4L154.4,79.6z M155.6,86.2c0.4-0.7,0.6-1.5,0.8-2.5h-1.6c0.1,0.4,0.2,0.9,0.4,1.4C155.3,85.6,155.4,85.9,155.6,86.2z"/>
			</g>
			<g>
				<circle class="st3" cx="173.5" cy="84" r="8"/>
				<path class="st4" d="M170.1,85.3c0-0.1-0.1-0.2-0.1-0.3s-0.2-0.1-0.3-0.1h-0.8c-0.1,0-0.2,0-0.3-0.1s-0.1-0.1-0.1-0.2
					s0.1-0.2,0.1-0.2c0.1-0.1,0.1-0.1,0.3-0.1h1c0.3,0,0.5,0.1,0.7,0.3c0.2,0.2,0.3,0.4,0.3,0.7V87c0.1,0.5,0.7,0.9,1.8,1.1
					c0.4,0,2.3,0,5.6,0c0.1,0,0.2,0,0.3,0.1s0.1,0.1,0.1,0.3c0,0.1,0,0.2-0.1,0.3c-0.1,0.1-0.2,0.1-0.3,0.1c-1.6,0-3.1,0-4.5,0
					c-1.7,0-2.8-0.3-3.3-1c-0.2,0.3-0.5,0.6-0.7,0.7c-0.6,0.4-1,0.5-1.2,0.4c-0.1,0-0.1-0.1-0.1-0.2c-0.1-0.2,0-0.3,0.2-0.4
					c0.9-0.3,1.4-0.8,1.5-1.4L170.1,85.3L170.1,85.3z M168.5,81.8c0-0.1,0-0.2,0-0.3c0-0.1,0.1-0.1,0.2-0.1c0.1,0,0.2,0,0.3,0.1
					c0.5,0.3,1,0.6,1.5,1.1c0.1,0.1,0.1,0.2,0.1,0.2c0,0.1,0,0.2-0.1,0.3s-0.1,0.1-0.2,0.1c-0.1,0-0.2,0-0.3-0.1
					c-0.5-0.5-0.9-0.8-1.4-1.1C168.6,82,168.5,81.9,168.5,81.8z M168.7,79.5c0-0.1,0-0.2,0-0.3c0-0.1,0.1-0.1,0.2-0.1
					c0.1,0,0.2,0,0.3,0.1c0.5,0.3,1,0.6,1.5,1.1c0.1,0.1,0.1,0.2,0.1,0.2c0,0.1,0,0.2-0.1,0.3s-0.1,0.1-0.2,0.1
					c-0.1,0-0.2,0-0.3-0.1c-0.5-0.5-0.9-0.8-1.4-1.1C168.8,79.7,168.7,79.6,168.7,79.5z M173.1,84.3h-1.4c-0.1,0-0.2,0-0.2-0.1
					c-0.1-0.1-0.1-0.1-0.1-0.2s0-0.2,0.1-0.2c0.1-0.1,0.1-0.1,0.2-0.1h1.4V83c-0.1,0-0.1,0-0.1,0c-0.4,0-0.7,0-0.9,0
					s-0.4-0.1-0.5-0.2s-0.2-0.3-0.2-0.5V80c0-0.2,0.1-0.4,0.2-0.6c0.1-0.2,0.3-0.2,0.6-0.2h1.5c0.2,0,0.4,0.1,0.5,0.2
					s0.2,0.3,0.2,0.5v0.8c0,0.2-0.1,0.4-0.2,0.5c-0.1,0.1-0.3,0.2-0.6,0.2h-1.7V82c0,0.1,0,0.2,0.1,0.3c0.1,0,0.2,0.1,0.3,0.1
					c0.4,0,0.7,0,1.1,0c0.4,0,0.5-0.2,0.5-0.5c0-0.1,0-0.2,0.1-0.3c0.1-0.1,0.1-0.1,0.2-0.1s0.2,0,0.3,0.1s0.1,0.1,0.1,0.2
					c0,0.4,0,0.7-0.1,0.8c-0.1,0.3-0.4,0.4-0.7,0.4c-0.1,0-0.1,0-0.2,0v0.7h2.1V83c-0.4-0.1-0.6-0.1-0.7-0.2
					c-0.1-0.1-0.2-0.3-0.2-0.5V80c0-0.2,0.1-0.4,0.2-0.6s0.3-0.2,0.6-0.2h1.4c0.2,0,0.4,0.1,0.5,0.2s0.2,0.3,0.2,0.5v0.8
					c0,0.2-0.1,0.4-0.2,0.5c-0.1,0.1-0.3,0.2-0.6,0.2h-1.6V82c0,0.1,0,0.2,0.1,0.3s0.2,0.1,0.3,0.1c0.3,0,0.7,0,1,0
					c0.4,0,0.6-0.2,0.6-0.5c0-0.1,0-0.2,0.1-0.3c0.1-0.1,0.1-0.1,0.2-0.1s0.2,0,0.3,0.1s0.1,0.1,0.1,0.2c0,0.4,0,0.6-0.1,0.8
					c-0.1,0.1-0.2,0.2-0.3,0.3c-0.1,0.1-0.6,0.1-1.4,0.1v0.7h1.3c0.1,0,0.2,0,0.2,0.1c0.1,0.1,0.1,0.1,0.1,0.2s0,0.2-0.1,0.2
					c-0.1,0.1-0.1,0.1-0.2,0.1h-1.3v0.9h1.7c0.1,0,0.2,0,0.2,0.1c0.1,0.1,0.1,0.1,0.1,0.2s0,0.2-0.1,0.2c-0.1,0.1-0.1,0.1-0.2,0.1
					h-6.7c-0.1,0-0.2,0-0.2-0.1c-0.1-0.1-0.1-0.1-0.1-0.2s0-0.2,0.1-0.2c0.1-0.1,0.1-0.1,0.2-0.1h1.7L173.1,84.3L173.1,84.3z
					 M173.5,86c0.1,0,0.2,0,0.2,0.1c0.1,0.1,0.1,0.1,0.1,0.2s-0.1,0.2-0.1,0.3c-0.5,0.4-0.9,0.7-1.3,0.9c-0.4,0.2-0.7,0.3-0.9,0.3
					c-0.1,0-0.1-0.1-0.1-0.2s0-0.2,0-0.2c0.1-0.1,0.1-0.1,0.2-0.2c0.6-0.2,1.1-0.5,1.6-1C173.3,86,173.4,86,173.5,86z M172.1,80.8
					h1.6c0.1,0,0.1,0,0.2-0.1s0.1-0.1,0.1-0.2V80c0-0.1,0-0.1-0.1-0.2s-0.1-0.1-0.2-0.1h-1.3c-0.1,0-0.2,0-0.2,0.1s-0.1,0.1-0.1,0.2
					V80.8z M175.8,85.3v-0.9h-2.1v0.9H175.8z M175.6,80.8h1.4c0.1,0,0.1,0,0.2-0.1s0.1-0.1,0.1-0.2V80c0-0.1,0-0.1-0.1-0.2
					s-0.1-0.1-0.2-0.1h-1.2c-0.1,0-0.2,0-0.2,0.1s-0.1,0.1-0.1,0.2v0.8H175.6z M175.8,86.4c0-0.1,0-0.2,0-0.2
					c0.1-0.1,0.1-0.1,0.2-0.2c0.1,0,0.2,0,0.3,0h0.1c1.2,0.7,1.8,1.1,1.8,1.3c0,0.1,0,0.2-0.1,0.2c-0.1,0.1-0.1,0.1-0.2,0.1
					c-0.1,0-0.2,0-0.3-0.1c-0.7-0.5-1.2-0.9-1.7-1.1C175.9,86.6,175.8,86.5,175.8,86.4z"/>
			</g>
			<g>
				<circle class="st3" cx="194.2" cy="84" r="8"/>
				<path class="st4" d="M190.8,84.3c0.1,0,0.2-0.1,0.3,0s0.2,0.1,0.2,0.1c0,0.1,0.1,0.2,0,0.3c-0.2,0.9-0.4,1.7-0.7,2.3
					c-0.5,1.1-0.9,1.7-1.2,1.8c-0.1,0-0.2,0-0.2-0.1c-0.1-0.1-0.1-0.1-0.1-0.2s0-0.2,0.1-0.3c0.8-1.1,1.3-2.4,1.5-3.7
					C190.7,84.5,190.8,84.4,190.8,84.3z M189.2,82.2c0-0.1,0-0.2,0-0.3c0-0.1,0.1-0.1,0.2-0.2c0.1,0,0.2,0,0.3,0
					c0.5,0.2,0.9,0.5,1.5,0.9c0.1,0.1,0.1,0.1,0.1,0.2s0,0.2-0.1,0.3c-0.1,0.1-0.1,0.1-0.2,0.1c-0.1,0-0.2,0-0.3-0.1
					c-0.5-0.4-0.9-0.6-1.3-0.8C189.3,82.3,189.2,82.3,189.2,82.2z M189.4,79.5c0-0.1,0-0.2,0-0.3c0.1-0.1,0.1-0.1,0.2-0.2
					c0.1,0,0.2,0,0.3,0c0.5,0.2,1,0.6,1.5,1c0.1,0.1,0.1,0.2,0.1,0.2c0,0.1,0,0.2-0.1,0.3c-0.1,0.1-0.1,0.1-0.2,0.1
					c-0.1,0-0.2,0-0.3-0.1c-0.5-0.4-0.9-0.7-1.4-0.9C189.5,79.7,189.4,79.6,189.4,79.5z M195.1,85.2L195.1,85.2
					c-0.5,1.1-1.2,1.9-1.9,2.4c-0.4,0.3-0.9,0.6-1.5,0.8c-0.1,0-0.2,0.1-0.3,0c-0.1,0-0.1-0.1-0.2-0.2c-0.1-0.2,0-0.4,0.2-0.4
					c0.4-0.2,0.7-0.3,1.1-0.5c0.8-0.5,1.4-1.2,2-2.2h-1.2c-0.2,0.3-0.4,0.5-0.6,0.7c-0.6,0.6-1.1,0.9-1.3,0.8
					c-0.1,0-0.2-0.1-0.2-0.1c-0.1-0.2,0-0.4,0.5-0.7c0.7-0.5,1.2-1.2,1.6-2.1h-1.4c-0.1,0-0.2,0-0.2-0.1c-0.1-0.1-0.1-0.1-0.1-0.2
					s0-0.2,0.1-0.2c0.1-0.1,0.1-0.1,0.2-0.1h7.2c0.1,0,0.2,0,0.2,0.1c0.1,0.1,0.1,0.1,0.1,0.2s0,0.2-0.1,0.2
					c-0.1,0.1-0.1,0.1-0.2,0.1H194c-0.1,0.3-0.2,0.5-0.3,0.7h4.4c0.2,0,0.4,0.1,0.5,0.2s0.2,0.2,0.3,0.4c0,0.1,0,0.5,0,1.2
					c-0.1,1.1-0.2,1.8-0.3,2.1c-0.1,0.2-0.3,0.3-0.6,0.4c-0.2,0.1-0.5,0.1-0.8,0c-0.7-0.1-1-0.3-1.1-0.4c0-0.1,0-0.2,0-0.3
					c0.1-0.2,0.2-0.2,0.4-0.1c0.5,0.2,0.9,0.3,1.2,0.2c0.2-0.1,0.3-0.1,0.4-0.3c0.1-0.1,0.2-0.4,0.2-0.8s0-0.9,0-1.3
					c0-0.2,0-0.4-0.1-0.4c-0.1-0.1-0.2-0.2-0.4-0.2H197c-0.3,1.1-0.8,2-1.3,2.6c-0.4,0.4-0.8,0.7-1.3,1c-0.1,0.1-0.2,0.1-0.3,0.1
					s-0.2-0.1-0.2-0.1l-0.1-0.1c-0.1-0.2,0.2-0.4,0.7-0.8c0.9-0.7,1.5-1.6,1.8-2.7L195.1,85.2L195.1,85.2z M193.3,82.6
					c-0.3,0-0.5-0.1-0.6-0.2c-0.1-0.2-0.2-0.3-0.2-0.5v-2c0-0.2,0.1-0.4,0.2-0.6s0.3-0.2,0.5-0.2h4.3c0.2,0,0.4,0.1,0.6,0.2
					c0.1,0.1,0.2,0.3,0.2,0.6v2c0,0.2-0.1,0.4-0.2,0.6c-0.1,0.1-0.3,0.2-0.6,0.2L193.3,82.6L193.3,82.6z M197.7,80.5v-0.4
					c0-0.1,0-0.2-0.1-0.3c-0.1-0.1-0.2-0.1-0.3-0.1h-3.8c-0.1,0-0.2,0-0.3,0.1s-0.1,0.1-0.1,0.3v0.4H197.7z M193.2,81.2v0.4
					c0,0.1,0,0.2,0.1,0.3c0,0.1,0.1,0.1,0.3,0.1h3.8c0.1,0,0.2,0,0.3-0.1s0.1-0.2,0.1-0.3v-0.4H193.2L193.2,81.2z"/>
			</g>
			<g>
				<circle class="st3" cx="214.8" cy="84" r="8"/>
				<path class="st4" d="M214.8,79.3c0-0.1,0-0.2,0.1-0.2C215,79,215,79,215.1,79c0.1,0,0.2,0,0.2,0.1c0.1,0.1,0.1,0.1,0.1,0.2v0.5
					h4c0.1,0,0.2,0,0.3,0.1s0.1,0.1,0.1,0.2s0,0.2-0.1,0.2c-0.1,0.1-0.2,0.1-0.3,0.1h-7.7c-0.3,0-0.4,0.1-0.4,0.4v3.9
					c0,1.6-0.3,2.8-0.8,3.9c-0.1,0.1-0.1,0.2-0.2,0.2c-0.1,0-0.2,0-0.2-0.1c-0.1-0.1-0.2-0.3-0.1-0.5c0.5-1,0.7-2.3,0.7-3.7v-3.9
					c0-0.3,0.1-0.5,0.2-0.6c0.1-0.1,0.3-0.2,0.6-0.2h3.4L214.8,79.3L214.8,79.3z M212.9,84.4V87c1.2-0.3,2.1-0.6,2.6-0.8
					c0.1,0,0.2-0.1,0.3,0c0.1,0,0.1,0.1,0.2,0.2c0,0.1,0,0.2,0,0.3c0,0.1-0.1,0.1-0.2,0.2c-0.2,0.1-0.4,0.2-0.7,0.3
					c-2.2,0.7-3.5,1-3.8,0.8c-0.1-0.1-0.1-0.1-0.1-0.2s0-0.2,0.1-0.3c0.1-0.1,0.4-0.2,1.1-0.3v-4.8c0-0.3,0.1-0.5,0.2-0.7
					c0.1-0.2,0.3-0.3,0.6-0.3c2.1,0,4-0.2,5.6-0.6c0.1,0,0.2,0,0.3,0c0.1,0.1,0.1,0.1,0.1,0.2s0,0.2,0,0.3c-0.1,0.2-1,0.3-2.6,0.5
					c0,0.6,0.1,1.3,0.1,2h2.5c0.1,0,0.2,0,0.2,0.1c0.1,0.1,0.1,0.1,0.1,0.2s0,0.2-0.1,0.2s-0.1,0.1-0.2,0.1h-2.4
					c0.3,1.6,0.8,2.8,1.6,3.6c0.2,0.2,0.3,0.3,0.4,0.3c0.1,0,0.2-0.1,0.2-0.3c0.2-0.9,0.3-1.4,0.4-1.4c0.1-0.1,0.2-0.1,0.3,0
					c0.1,0,0.1,0.1,0.2,0.1c0,0.1,0.1,0.2,0,0.3c-0.2,1-0.3,1.6-0.4,1.8c-0.1,0.2-0.3,0.3-0.5,0.3s-0.4-0.1-0.5-0.1
					s-0.1-0.1-0.1-0.1c-1.1-0.8-1.8-2.3-2.2-4.4C216.1,84.4,212.9,84.4,212.9,84.4z M216.6,88.1c0.1,0,0.2,0,0.2,0.1
					c0.1,0.1,0.1,0.1,0.1,0.2s0,0.2-0.1,0.2s-0.1,0.1-0.2,0.1h-4.1c-0.1,0-0.2,0-0.2-0.1c-0.1-0.1-0.1-0.1-0.1-0.2s0-0.2,0.1-0.2
					c0.1-0.1,0.1-0.1,0.2-0.1H216.6L216.6,88.1z M215.8,81.8c-0.9,0.1-1.8,0.1-2.4,0.1c-0.1,0-0.3,0-0.3,0.1
					c-0.1,0.1-0.1,0.2-0.1,0.3v1.3h3l0,0C215.9,83,215.8,82.4,215.8,81.8z"/>
			</g>
			<g>
				<circle class="st3" cx="240.7" cy="84.8" r="8"/>
				<path class="st4" d="M235.8,87.8c-0.1,0-0.1-0.1-0.1-0.2s0-0.2,0-0.3c0-0.1,0.1-0.1,0.2-0.1c1-0.2,2.1-0.8,3.2-1.9
					c-0.2-0.2-0.3-0.4-0.3-0.8v-1.2c0-0.1,0-0.2,0.1-0.3s0.1-0.1,0.2-0.1c0.1,0,0.2,0,0.2,0.1c0.1,0.1,0.1,0.2,0.1,0.3v1.1
					c0,0.2,0,0.3,0.1,0.3c0.1,0.1,0.2,0.1,0.3,0.1c0.9,0,1.6,0,2.4,0c0.4,0,0.6-0.2,0.6-0.4c0-0.3,0-0.5,0.1-0.6s0.2-0.1,0.3-0.1
					c0.2,0,0.3,0.2,0.2,0.4v0.1c0,0.5-0.2,0.9-0.5,1.1c-0.2,0.1-1.3,0.1-3.2,0.1c-0.3,0.3-0.5,0.5-0.7,0.7h4.5
					c0.2,0,0.4,0.1,0.5,0.1s0.2,0.2,0.2,0.4c0,0.1,0,0.3-0.1,0.5c-0.6,0.5-1.3,1-2.3,1.3c-0.1,0-0.2,0.1-0.2,0.1
					c0.1,0,0.1,0,0.1,0.1c1.3,0.5,2.5,0.6,3.7,0.5c0.1,0,0.2,0,0.3,0.1s0.1,0.1,0.1,0.2s0,0.2-0.1,0.2c-0.1,0.1-0.1,0.1-0.3,0.1
					h-0.1c-1.6,0.1-3.1-0.2-4.6-0.9c-1.4,0.4-2.9,0.7-4.7,0.9c-0.1,0-0.2-0.1-0.2-0.1c0-0.1-0.1-0.1-0.1-0.2s0.1-0.2,0.1-0.2
					c0.1,0,0.2-0.1,0.3-0.1c1.3-0.2,2.6-0.4,3.9-0.6c-0.7-0.4-1.4-1-2-1.6C236.8,87.6,236,87.9,235.8,87.8z M242.7,82.1
					c0.2-0.2,0.4-0.4,0.6-0.7c0.3-0.5,0.5-0.7,0.6-0.7s0.2,0,0.2,0c0.1,0,0.1,0.1,0.2,0.2c0,0.1,0,0.2,0,0.3
					c-0.1,0.1-0.2,0.3-0.4,0.6c-0.1,0.2-0.2,0.3-0.3,0.4h1.3c0.2,0,0.4,0,0.5,0.1s0.2,0.2,0.3,0.3c0.1,0.1,0.1,0.3,0.1,0.5
					s-0.1,0.5-0.3,0.9c-0.1,0.1-0.1,0.2-0.2,0.2c-0.1,0-0.2,0-0.2,0c-0.2-0.1-0.2-0.2-0.2-0.4c0.2-0.4,0.3-0.7,0.2-0.8
					c-0.1-0.1-0.3-0.2-0.5-0.2h-7.3c-0.2,0-0.3,0.1-0.4,0.2c-0.1,0.1-0.1,0.3-0.1,0.4V84c0,0.1,0,0.2-0.1,0.3
					c-0.1,0.1-0.1,0.1-0.2,0.1c-0.1,0-0.2-0.1-0.2-0.1c-0.1-0.1-0.1-0.2-0.1-0.3v-0.7c0-0.3,0.1-0.6,0.3-0.8
					c0.2-0.2,0.4-0.3,0.7-0.3h1.2l-0.1-0.1c-0.1-0.3-0.3-0.6-0.5-0.8c-0.1-0.1-0.1-0.2-0.1-0.3s0-0.1,0.1-0.2c-0.6,0-0.9,0-1-0.1
					s-0.1-0.1-0.1-0.2s0-0.2,0.1-0.2c0.1-0.1,0.1-0.1,0.2-0.1c1.2,0,2.5-0.1,4.1-0.1c1.6-0.1,2.7-0.2,3.5-0.4c0.1,0,0.2,0,0.3,0
					s0.1,0.1,0.1,0.2s0,0.2,0,0.3c0,0.1-0.1,0.1-0.2,0.1c-1.1,0.3-3.3,0.5-6.6,0.6c0.5,0.5,0.7,0.9,0.6,1.2c0,0.1-0.1,0.1-0.1,0.1h2
					l-0.1-0.1c-0.1-0.3-0.2-0.5-0.4-0.7c-0.1-0.1-0.1-0.2-0.1-0.3c0-0.1,0.1-0.2,0.1-0.2c0.1-0.1,0.1-0.1,0.2,0
					c0.2,0.1,0.4,0.4,0.6,1c0,0.1,0,0.2,0,0.3h1.6C242.6,82.2,242.7,82.2,242.7,82.1z M237.5,83.3c0.1,0,0.1,0,0.2,0
					c0.1,0,0.1,0.1,0.2,0.1c0,0.1,0,0.2,0,0.3c-0.4,0.9-0.8,1.5-1.2,1.9c-0.1,0.1-0.2,0.1-0.3,0.1s-0.1,0-0.2-0.1
					c-0.1-0.1-0.1-0.1-0.1-0.2s0.1-0.2,0.1-0.3c0.4-0.4,0.8-1,1.1-1.6C237.4,83.3,237.5,83.3,237.5,83.3z M240.8,88.3
					c0.2-0.1,0.4-0.1,0.6-0.2c1-0.4,1.6-0.7,2-1c0-0.1,0.1-0.1,0.1-0.2s-0.1-0.1-0.2-0.1h-4.5c0.4,0.3,0.8,0.6,1.2,0.9
					C240.2,88,240.5,88.2,240.8,88.3z M240.4,83.3c0-0.1,0-0.1,0.1-0.2s0.1-0.1,0.2-0.1s0.2,0,0.2,0.1c0.6,0.6,0.9,1,0.9,1.3
					c0,0.1-0.1,0.2-0.1,0.2c-0.1,0-0.2,0.1-0.2,0.1c-0.1,0-0.2-0.1-0.2-0.2c-0.3-0.4-0.6-0.7-0.8-0.9
					C240.4,83.5,240.4,83.4,240.4,83.3z M243.5,83.5c0-0.1,0.1-0.1,0.1-0.2s0.1-0.1,0.2-0.1s0.2,0.1,0.2,0.1
					c0.9,1.3,1.3,2.1,1.2,2.3c0,0.1-0.1,0.1-0.2,0.2c-0.1,0-0.2,0-0.2,0c-0.1,0-0.1-0.1-0.2-0.2c-0.3-0.7-0.7-1.4-1.1-2
					C243.5,83.6,243.5,83.5,243.5,83.5z"/>
			</g>
			<g>
				<circle class="st3" cx="261.3" cy="84.8" r="8"/>
				<path class="st4" d="M260,83.9c-0.1,0.1-0.3,0.2-0.4,0.4c-1.6,1.4-2.6,2.1-3.1,2c-0.1,0-0.1-0.1-0.2-0.2
					c-0.1-0.2-0.1-0.4,0.1-0.5c2.1-1,3.9-2.7,5.3-5h-5.1c-0.1,0-0.2,0-0.2-0.1c-0.1-0.1-0.1-0.1-0.1-0.2s0-0.2,0.1-0.2
					c0.1-0.1,0.1-0.1,0.2-0.1h9.3c0.1,0,0.2,0,0.2,0.1c0.1,0.1,0.1,0.1,0.1,0.2s0,0.2-0.1,0.2s-0.1,0.1-0.2,0.1h-3.5
					c-0.3,0.5-0.6,0.9-0.9,1.3l0,0v7.3c0,0.1,0,0.2-0.1,0.3c-0.1,0.1-0.1,0.1-0.2,0.1s-0.2,0-0.2-0.1c-0.1-0.1-0.1-0.1-0.1-0.3v-6.5
					C260.6,83.2,260.3,83.5,260,83.9z M262.3,83.1c0-0.1,0-0.2,0.1-0.2c0.1-0.1,0.1-0.1,0.2-0.1s0.2,0,0.3,0.1
					c1.1,0.8,2.3,1.8,3.5,3.2c0.1,0.1,0.1,0.2,0.1,0.3c0,0.1,0,0.2-0.1,0.2s-0.2,0.1-0.3,0.1s-0.2-0.1-0.3-0.1
					c-1.2-1.4-2.4-2.5-3.4-3.2C262.3,83.2,262.3,83.2,262.3,83.1z"/>
			</g>
			<g>
				<circle class="st3" cx="282" cy="84.8" r="8"/>
				<path class="st4" d="M279.3,89.5c0,0.1,0,0.2-0.1,0.3c-0.1,0.1-0.1,0.1-0.2,0.1s-0.2,0-0.2-0.1c-0.1-0.1-0.1-0.1-0.1-0.3v-3.7
					c-0.7,1.4-1.2,2.1-1.4,2.2c-0.1,0-0.2,0-0.2-0.1c-0.1-0.1-0.1-0.1-0.1-0.2s0-0.2,0.1-0.3c0.7-0.9,1.2-1.8,1.6-2.7h-1.1
					c-0.1,0-0.2,0-0.2-0.1c-0.1-0.1-0.1-0.1-0.1-0.2s0-0.2,0.1-0.2c0.1-0.1,0.1-0.1,0.2-0.1h1.2v-3.3c-0.8,0.2-1.2,0.2-1.3,0.2
					c-0.1-0.1-0.1-0.1-0.1-0.2s0-0.2,0.1-0.2s0.1-0.1,0.2-0.1c1.2-0.2,2-0.4,2.5-0.7c0.1,0,0.2,0,0.3,0c0.1,0,0.1,0.1,0.2,0.2
					c0,0.1,0,0.2,0,0.3c0,0.1-0.1,0.1-0.2,0.2c-0.3,0.1-0.6,0.2-0.9,0.3v3.5h0.9c0.1,0,0.2,0,0.2,0.1c0.1,0.1,0.1,0.1,0.1,0.2
					s0,0.2-0.1,0.2s-0.1,0.1-0.2,0.1h-0.9c0.9,1.1,1.3,1.8,1.3,1.9s-0.1,0.2-0.1,0.2c-0.1,0.1-0.2,0.1-0.2,0.1
					c-0.1,0-0.1-0.1-0.2-0.2c-0.2-0.3-0.4-0.7-0.7-1.1L279.3,89.5L279.3,89.5z M277.2,81.8c0-0.1,0.1-0.1,0.2-0.2c0.1,0,0.2,0,0.3,0
					s0.1,0.1,0.2,0.2c0.2,0.4,0.3,0.9,0.4,1.4c0,0.1,0,0.2,0,0.3c-0.1,0.1-0.1,0.1-0.2,0.1s-0.2,0-0.2-0.1c-0.1-0.1-0.1-0.1-0.1-0.3
					c-0.1-0.5-0.2-0.9-0.3-1.3C277.2,82,277.2,81.9,277.2,81.8z M280,81.3c0.1-0.1,0.1-0.1,0.2-0.1s0.2,0,0.2,0.1
					c0.1,0.1,0.1,0.2,0.1,0.3c-0.1,1.1-0.2,1.8-0.4,1.9c-0.1,0-0.1,0.1-0.2,0c-0.1,0-0.1-0.1-0.2-0.1c-0.1-0.1-0.1-0.2,0-0.3
					c0.1-0.4,0.2-0.9,0.2-1.6C280,81.5,280,81.4,280,81.3z M281.3,88.4c-0.1,0-0.2,0-0.2-0.1c-0.1-0.1-0.1-0.1-0.1-0.2
					s0-0.2,0.1-0.2c0.1-0.1,0.1-0.1,0.2-0.1h2.3v-0.9h-2.2c-0.1,0-0.2,0-0.2-0.1c-0.1-0.1-0.1-0.1-0.1-0.2s0-0.2,0.1-0.2
					c0.1-0.1,0.1-0.1,0.2-0.1h1.2c-0.1-0.2-0.2-0.6-0.3-1.1h-1.1c-0.1,0-0.2,0-0.2-0.1c-0.1-0.1-0.1-0.1-0.1-0.2s0-0.2,0.1-0.2
					c0.1-0.1,0.1-0.1,0.2-0.1h2.5v-0.8h-2.2c-0.1,0-0.2,0-0.2-0.1c-0.1-0.1-0.1-0.1-0.1-0.2s0-0.2,0.1-0.2c0.1-0.1,0.1-0.1,0.2-0.1
					h2.2v-0.7h-2c-0.2,0-0.3-0.1-0.4-0.2s-0.2-0.3-0.2-0.4v-1.1c0-0.2,0.1-0.3,0.2-0.4s0.3-0.2,0.4-0.2h4.5c0.2,0,0.3,0.1,0.4,0.2
					s0.1,0.3,0.1,0.4v1.1c0,0.1-0.1,0.3-0.2,0.4s-0.2,0.2-0.4,0.2h-2v0.7h2.2c0.1,0,0.2,0,0.2,0.1c0.1,0.1,0.1,0.1,0.1,0.2
					s0,0.2-0.1,0.2c-0.1,0.1-0.1,0.1-0.2,0.1h-2.2v0.8h2.5c0.1,0,0.2,0,0.2,0.1c0.1,0.1,0.1,0.1,0.1,0.2s0,0.2-0.1,0.2
					s-0.1,0.1-0.2,0.1h-1.2c0,0.1-0.1,0.3-0.1,0.5s-0.1,0.4-0.2,0.6h1.1c0.1,0,0.2,0,0.2,0.1c0.1,0.1,0.1,0.1,0.1,0.2s0,0.2-0.1,0.2
					s-0.1,0.1-0.2,0.1H284v0.9h2.5c0.1,0,0.2,0,0.2,0.1c0.1,0.1,0.1,0.1,0.1,0.2s0,0.2-0.1,0.2c-0.1,0.1-0.1,0.1-0.2,0.1H284v1.1
					c0,0.1,0,0.2-0.1,0.3c-0.1,0.1-0.1,0.1-0.2,0.1s-0.2,0-0.2-0.1c-0.1-0.1-0.1-0.1-0.1-0.3v-1.1H281.3L281.3,88.4z M282.8,80.7
					H282c-0.1,0-0.2,0-0.2,0.1c-0.1,0.1-0.1,0.1-0.1,0.2v0.4c0,0.1,0,0.2,0.1,0.2s0.1,0.1,0.2,0.1h0.8V80.7L282.8,80.7z M284.7,86.2
					c0.1-0.2,0.2-0.6,0.3-1.1h-2.1c0.2,0.5,0.3,0.8,0.3,1.1H284.7z M284.6,80.7h-1.1v1h1.1V80.7z M285.2,81.7h0.7
					c0.1,0,0.2,0,0.2-0.1s0.1-0.1,0.1-0.2V81c0-0.1,0-0.2-0.1-0.2c0-0.1-0.1-0.1-0.2-0.1h-0.7V81.7z"/>
			</g>
			<g>
				<circle class="st3" cx="302.7" cy="84.8" r="8"/>
				<path class="st4" d="M298,86.1c-0.1,0-0.2,0-0.2-0.1c-0.1-0.1-0.1-0.1-0.1-0.2s0-0.2,0.1-0.2c0.1-0.1,0.1-0.1,0.2-0.1h4.9
					c0-0.7-0.1-1.3-0.2-1.9h-4.1c-0.1,0-0.2,0-0.2-0.1c-0.1-0.1-0.1-0.1-0.1-0.2s0-0.2,0.1-0.2c0.1-0.1,0.1-0.1,0.2-0.1h4v-0.1
					c-0.1-0.5-0.4-1.1-0.6-1.8c-1.3,0.1-2.4,0.2-3.3,0.3c-0.1,0-0.2,0-0.2-0.1s-0.1-0.1-0.1-0.2s0-0.2,0.1-0.2
					c0.1-0.1,0.1-0.1,0.2-0.1c1.2-0.1,2.5-0.2,4.1-0.4c1.6-0.2,2.7-0.4,3.5-0.6c0.1,0,0.2,0,0.3,0c0.1,0,0.1,0.1,0.1,0.2
					s0,0.2,0,0.3c-0.1,0.2-1.2,0.5-3.3,0.7c-0.3,0-0.5,0.1-0.8,0.1c0.3,0.7,0.5,1.3,0.6,1.9h3.7c0.1,0,0.2,0,0.2,0.1
					c0.1,0.1,0.1,0.1,0.1,0.2s0,0.2-0.1,0.2s-0.1,0.1-0.2,0.1h-3.6c0.1,0.6,0.1,1.2,0.2,1.9h3.9c0.1,0,0.2,0,0.2,0.1
					c0.1,0.1,0.1,0.1,0.1,0.2s0,0.2-0.1,0.2c-0.1,0.1-0.1,0.1-0.2,0.1h-3.9c0,0.8,0,1.5-0.1,2.2c-0.2,0.7-0.5,1.2-0.9,1.4
					c-0.2,0.1-0.6,0.1-1,0.1s-1-0.2-1.9-0.6c-0.1,0-0.2-0.1-0.2-0.2s0-0.2,0-0.3c0.1-0.1,0.1-0.2,0.2-0.2c0,0,0.4,0.1,1.1,0.3
					c0.6,0.2,1.1,0.2,1.5,0.1c0.3-0.1,0.4-0.3,0.5-0.7c0.2-0.8,0.2-1.5,0.2-2.3L298,86.1L298,86.1z"/>
			</g>
		</g>
	</g>
</g>
</svg>
