<?xml version="1.0" encoding="utf-8"?>
<!-- Generator: Adobe Illustrator 24.0.0, SVG Export Plug-In . SVG Version: 6.00 Build 0)  -->
<svg version="1.1" id="圖層_1" xmlns="http://www.w3.org/2000/svg" xmlns:xlink="http://www.w3.org/1999/xlink" x="0px" y="0px"
	 viewBox="0 0 566.9 566.9" style="enable-background:new 0 0 566.9 566.9;" xml:space="preserve">
<style type="text/css">
	.st0{fill:#F9E1E2;}
	.st1{fill:#C90001;}
	.st2{fill:#593300;}
</style>
<circle class="st0" cx="250.1" cy="268.5" r="128.2"/>
<g>
	<path class="st1" d="M494.2,547.9H390.4c-3.3,0-5.9-3.7-5.9-8.2l0,0c0-4.5,2.6-8.2,5.9-8.2h103.9c3.3,0,5.9,3.7,5.9,8.2l0,0
		C500.2,544.2,497.5,547.9,494.2,547.9z"/>
</g>
<g>
	<path class="st2" d="M512.2,538.3L512.2,538.3c0-3.6,2.3-6.8,5.7-7.8c7.8-2.4,13.5-9.8,13.5-18.4V63c0-15.2-12.3-27.5-27.5-27.5H63
		c-15.2,0-27.5,12.3-27.5,27.5v440.9c0,15.2,12.3,27.5,27.5,27.5h296.6c4.5,0,8.2,3.7,8.2,8.2l0,0c0,4.5-3.7,8.2-8.2,8.2H63
		c-24.3,0-43.9-19.7-43.9-43.9V63c0-24.3,19.7-43.9,43.9-43.9h440.9c24.3,0,43.9,19.7,43.9,43.9v449.1c0,16-10.5,29.5-25,34.1
		C517.5,547.9,512.2,543.9,512.2,538.3z"/>
</g>
<g>
	<path class="st2" d="M283.5,417.2c-73.7,0-133.7-60-133.7-133.7s60-133.7,133.7-133.7s133.7,60,133.7,133.7
		S357.2,417.2,283.5,417.2z M283.5,160.7c-67.7,0-122.7,55.1-122.7,122.7c0,67.7,55.1,122.7,122.7,122.7s122.7-55,122.7-122.7
		S351.1,160.7,283.5,160.7z"/>
</g>
<circle class="st2" cx="438.5" cy="124.6" r="33.4"/>
</svg>
