<?xml version="1.0" encoding="utf-8"?>
<!-- Generator: Adobe Illustrator 24.0.0, SVG Export Plug-In . SVG Version: 6.00 Build 0)  -->
<svg version="1.1" id="圖層_1" xmlns="http://www.w3.org/2000/svg" xmlns:xlink="http://www.w3.org/1999/xlink" x="0px" y="0px"
	 viewBox="0 0 566.9 566.9" style="enable-background:new 0 0 566.9 566.9;" xml:space="preserve">
<style type="text/css">
	.st0{fill:#F9E1E2;}
	.st1{fill:#C90001;}
	.st2{fill:#593300;}
</style>
<path class="st0" d="M325.3,46.1c-32.8,0-58.3,6-76.5,18.1c-18.2,12.1-30.9,27.9-38.2,47.3c-5.3,14.5-7.9,36.6-7.9,66.3V225h-43
	c-12.9,0-23.4,10.4-23.4,23.4v11.7c0,12.9,10.4,23.4,23.4,23.4h43v207.4h74.7V283.4h63c12.9,0,23.4-10.5,23.4-23.4v-11.7
	c0-12.9-10.5-23.4-23.4-23.4h-63v-40.9c0-26.7,4.7-44.9,14.2-54.6c9.5-9.7,25.6-14.6,48.4-14.6c0.1,0,0.1,0,0.2,0
	c13,0,23.5-10.4,23.5-23.3V69.9c0-12.4-9.7-22.6-22-23.3C336.1,46.3,330.6,46.1,325.3,46.1z"/>
<g>
	<path class="st1" d="M494.2,547.9H390.4c-3.3,0-5.9-3.7-5.9-8.2l0,0c0-4.5,2.6-8.2,5.9-8.2h103.9c3.3,0,5.9,3.7,5.9,8.2l0,0
		C500.2,544.2,497.5,547.9,494.2,547.9z"/>
</g>
<g>
	<path class="st2" d="M512.2,538.3L512.2,538.3c0-3.6,2.3-6.8,5.7-7.8c7.8-2.4,13.5-9.8,13.5-18.4V63c0-15.2-12.3-27.5-27.5-27.5H63
		c-15.2,0-27.5,12.3-27.5,27.5v440.9c0,15.2,12.3,27.5,27.5,27.5h296.6c4.5,0,8.2,3.7,8.2,8.2l0,0c0,4.5-3.7,8.2-8.2,8.2H63
		c-24.3,0-43.9-19.7-43.9-43.9V63c0-24.3,19.7-43.9,43.9-43.9h440.9c24.3,0,43.9,19.7,43.9,43.9v449.1c0,16-10.5,29.5-25,34.1
		C517.5,547.9,512.2,543.9,512.2,538.3z"/>
</g>
<g>
	<path class="st2" d="M316.3,511.3h-85.7V303.9h-37.5c-15.9,0-28.9-12.9-28.9-28.9v-11.7c0-15.9,12.9-28.9,28.9-28.9h37.5v-41.6
		c0-30.7,2.7-53,8.3-68.2c7.6-20.5,21.2-37.3,40.3-50c19-12.6,45.8-19.1,79.6-19.1c5.4,0,11,0.2,16.7,0.5
		c15.2,0.9,27.2,13.5,27.2,28.8v21.7c0,7.7-3,14.9-8.4,20.3c-5.5,5.5-12.8,8.5-20.6,8.5c0,0,0,0,0,0h-0.2
		c-21.1,0-36.1,4.4-44.4,12.9c-8.4,8.6-12.6,25.7-12.6,50.8v35.4h57.5c15.9,0,28.9,12.9,28.9,28.8v11.7c0,15.9-12.9,28.9-28.9,28.9
		h-57.5L316.3,511.3L316.3,511.3z M241.6,500.3h63.7V292.9h68.5c9.8,0,17.9-8,17.9-17.9v-11.7c0-9.8-8-17.9-17.9-17.9h-68.5v-46.4
		c0-28.4,5.1-47.6,15.7-58.5c10.5-10.8,28.1-16.3,52.3-16.3h0.3c0,0,0,0,0,0c4.8,0,9.4-1.9,12.8-5.3c3.4-3.4,5.2-7.8,5.2-12.6V84.9
		c0-9.5-7.4-17.3-16.8-17.8c-5.5-0.3-10.9-0.5-16-0.5c-31.6,0-56.3,5.8-73.5,17.2c-17.1,11.4-29.3,26.4-36.1,44.7
		c-5,13.8-7.6,35.4-7.6,64.4v52.6h-48.5c-9.8,0-17.9,8-17.9,17.9v11.7c0,9.8,8,17.9,17.9,17.9h48.5L241.6,500.3L241.6,500.3z"/>
</g>
</svg>
