<?xml version="1.0" encoding="utf-8"?>
<!-- Generator: Adobe Illustrator 24.0.0, SVG Export Plug-In . SVG Version: 6.00 Build 0)  -->
<svg version="1.1" id="圖層_1" xmlns="http://www.w3.org/2000/svg" xmlns:xlink="http://www.w3.org/1999/xlink" x="0px" y="0px"
	 viewBox="0 0 566.9 566.9" style="enable-background:new 0 0 566.9 566.9;" xml:space="preserve">
<style type="text/css">
	.st0{fill:#F9E1E2;}
	.st1{fill:#C90001;}
	.st2{fill:#593300;}
</style>
<path class="st0" d="M449.1,257.4c0-79.9-84.9-144.7-189.7-144.7S69.8,177.5,69.8,257.4s84.9,144.7,189.7,144.7v24.1l98-44.9h0
	C412.4,356,449.1,310,449.1,257.4z"/>
<g>
	<g>
		<g>
			<path class="st1" d="M494.2,547.8H390.4c-3.3,0-5.9-3.7-5.9-8.2l0,0c0-4.5,2.6-8.2,5.9-8.2h103.9c3.3,0,5.9,3.7,5.9,8.2l0,0
				C500.1,544.2,497.5,547.8,494.2,547.8z"/>
		</g>
		<g>
			<path class="st2" d="M512.2,538.3L512.2,538.3c0-3.6,2.3-6.8,5.7-7.8c7.8-2.4,13.5-9.8,13.5-18.4V63c0-15.2-12.3-27.5-27.5-27.5
				H63c-15.2,0-27.5,12.3-27.5,27.5v440.9c0,15.2,12.3,27.5,27.5,27.5h296.6c4.5,0,8.2,3.7,8.2,8.2l0,0c0,4.5-3.7,8.2-8.2,8.2H63
				c-24.3,0-43.9-19.7-43.9-43.9V63c0-24.3,19.7-43.9,43.9-43.9h440.9c24.3,0,43.9,19.7,43.9,43.9v449.2c0,16-10.5,29.5-25,34.1
				C517.5,547.9,512.2,543.9,512.2,538.3z"/>
		</g>
	</g>
</g>
<g>
	<path class="st2" d="M278,448.8v-27.2c-49.8-1-96.5-16.4-132-43.5c-37.2-28.4-57.7-66.3-57.7-106.7s20.5-78.3,57.7-106.7
		c36.8-28.1,85.6-43.5,137.5-43.5c51.9,0,100.7,15.5,137.5,43.5c37.2,28.4,57.7,66.3,57.7,106.7c0,26.6-9.1,52.7-26.4,75.5
		c-12.5,16.6-29.1,31.2-48.7,42.9h3L278,448.8z M283.5,132.2c-101.6,0-184.2,62.5-184.2,139.2s82.6,139.2,184.2,139.2h5.5v21
		l90.1-41.3c26.6-12.3,48.9-29.6,64.4-50.1c15.8-20.9,24.1-44.7,24.1-68.9C467.6,194.6,385,132.2,283.5,132.2z"/>
</g>
<g>
	<path class="st2" d="M202.9,306.1h-33.7c-1.5,0-2.7-1.2-2.7-2.7v-68.6c0-4.3-3.5-7.9-7.9-7.9h-1.4c-4.3,0-7.9,3.5-7.9,7.9V314
		c0,2.1,0.8,4.1,2.3,5.6c1.5,1.5,3.4,2.3,5.5,2.3c0,0,0,0,0.1,0h45.5c4.3,0,7.9-3.5,7.9-7.9C210.7,309.6,207.2,306.1,202.9,306.1z"
		/>
	<path class="st2" d="M230.9,226.9h-1.4c-4.3,0-7.9,3.5-7.9,7.9V314c0,2.1,0.8,4.1,2.3,5.6c1.5,1.5,3.4,2.3,5.5,2.3c0,0,0,0,0,0h1.4
		c4.3,0,7.9-3.5,7.9-7.9v-79.2C238.8,230.4,235.2,226.9,230.9,226.9z"/>
	<path class="st2" d="M322.4,226.9h-0.9c-4.3,0-7.9,3.5-7.9,7.9v47.8c0,1.8-1.5,2.4-1.9,2.6c-0.4,0.1-2,0.5-3-1.1l-35.9-53.7
		c-1.5-2.2-3.9-3.5-6.5-3.5h-4.1c-4.3,0-7.9,3.5-7.9,7.9V314c0,4.3,3.5,7.9,7.9,7.9h0.9c4.3,0,7.9-3.5,7.9-7.9v-47.9
		c0-1.8,1.5-2.4,1.9-2.6c0.4-0.1,2-0.5,3,1.1l35.9,53.8c1.5,2.2,3.9,3.5,6.5,3.5h4.1c4.3,0,7.9-3.5,7.9-7.9v-79.2
		C330.3,230.4,326.8,226.9,322.4,226.9z"/>
	<path class="st2" d="M409.6,306H365c-1.5,0-2.7-1.2-2.7-2.7v-20c0-1.5,1.2-2.7,2.7-2.7h39.1c4.3,0,7.9-3.5,7.9-7.9
		c0-4.3-3.5-7.9-7.9-7.9H365c-1.5,0-2.7-1.2-2.7-2.7v-17c0-1.5,1.2-2.7,2.7-2.7h42.5c4.3,0,7.9-3.5,7.9-7.9c0-4.3-3.5-7.9-7.9-7.9
		h-54.4c-4.3,0-7.9,3.5-7.9,7.9V314c0,2.1,0.8,4.1,2.3,5.6c1.5,1.5,3.4,2.2,5.4,2.2c0,0,0.1,0,0.1,0h56.4c4.3,0,7.9-3.5,7.9-7.9
		C417.4,309.6,413.9,306,409.6,306z"/>
</g>
</svg>
