<?xml version="1.0" encoding="utf-8"?>
<!-- Generator: Adobe Illustrator 24.0.0, SVG Export Plug-In . SVG Version: 6.00 Build 0)  -->
<svg version="1.1" id="圖層_1" xmlns="http://www.w3.org/2000/svg" xmlns:xlink="http://www.w3.org/1999/xlink" x="0px" y="0px"
	 viewBox="0 0 200 60" style="enable-background:new 0 0 200 60;" xml:space="preserve">
<style type="text/css">
	.st0{fill:none;stroke:#000000;stroke-width:1.3146;stroke-linecap:round;stroke-linejoin:round;stroke-miterlimit:10;}
	.st1{fill:none;stroke:#000000;stroke-width:0.3286;stroke-linecap:round;stroke-linejoin:round;stroke-miterlimit:10;}
	.st2{fill:#C90001;}
	.st3{fill:#FFFFFF;}
	.st4{font-family:'DFFangSong-W6-HK-BF';}
	.st5{font-size:32.5538px;}
	.st6{font-family:'AvenirNextCondensed-UltraLight';}
	.st7{font-size:14.4651px;}
	.st8{letter-spacing:0.74;}
</style>
<g>
	<g>
		<path class="st0" d="M18.2,22.67c0,0,5.75-1.37,5.75,4.8s0.99,25.29,18.84,25.29l-5.98,4.17"/>
		<path class="st0" d="M78.39,22.67c0,0-5.75-1.37-5.75,4.8s-0.99,25.29-18.84,25.29l5.98,4.17"/>
		<g>
			<path d="M59.16,8.78c-0.43-1.73-1.27-3.43-2.66-4.51c-1.39-1.11-3.31-1.16-4.92-0.61c-0.81,0.27-1.51,0.77-1.92,1.46
				c-0.41,0.7-0.52,1.55-0.47,2.4c0.12,1.71,0.75,3.4,1.46,5c1.48,3.22,3.43,6.23,5.45,9.18l1.56,2.18
				c0.52,0.71,1.09,1.44,1.57,2.24c0.99,1.58,1.72,3.32,2.14,5.14c0.86,3.63,0.45,7.61-1.41,10.91c-0.93,1.64-2.28,3.11-4.03,3.97
				c-1.75,0.87-3.84,1.01-5.68,0.33c-0.92-0.35-1.77-0.98-2.35-1.79c-0.58-0.81-0.89-1.76-1.03-2.7c-0.14-0.94-0.11-1.89,0.03-2.81
				c0.13-0.93,0.43-1.8,0.64-2.66c0.44-1.72,0.8-3.48,0.74-5.26c-0.04-0.88-0.2-1.76-0.59-2.56c-0.38-0.8-1.03-1.46-1.82-1.88
				c0.82,0.36,1.54,0.99,2,1.79c0.46,0.8,0.67,1.72,0.76,2.62c0.17,1.83-0.11,3.65-0.46,5.42c-0.18,0.9-0.44,1.75-0.52,2.61
				c-0.09,0.86-0.08,1.73,0.08,2.57c0.16,0.83,0.47,1.62,0.96,2.26c0.49,0.64,1.17,1.09,1.94,1.35c1.55,0.52,3.33,0.41,4.79-0.35
				c1.47-0.75,2.66-2.05,3.48-3.53c1.66-3,1.97-6.66,1.25-10.02c-0.37-1.69-1.03-3.31-1.93-4.79c-0.44-0.74-0.97-1.44-1.5-2.18
				l-1.55-2.22c-2.03-2.99-3.93-6.09-5.35-9.46c-0.69-1.69-1.3-3.45-1.38-5.34c-0.03-0.94,0.12-1.94,0.65-2.79
				c0.53-0.86,1.43-1.41,2.33-1.66c0.91-0.25,1.85-0.35,2.78-0.22C55.11,3.01,56,3.43,56.7,4.03C58.12,5.25,58.84,7.03,59.16,8.78z"
				/>
		</g>
		<g>
			<path d="M52.09,26.84c0.73,0.27,1.32,0.83,1.79,1.45c0.47,0.62,0.79,1.35,1.03,2.09c0.23,0.74,0.31,1.52,0.32,2.28
				c0,0.38-0.04,0.76-0.08,1.14c-0.07,0.38-0.15,0.75-0.26,1.11c-0.1-0.38-0.16-0.74-0.22-1.11c-0.08-0.36-0.14-0.72-0.2-1.07
				c-0.16-0.7-0.28-1.4-0.5-2.07C53.57,29.31,53.03,28.03,52.09,26.84z"/>
		</g>
		<path class="st1" d="M21.05,34.62h8.17c0.91,0,1.64,0.74,1.64,1.64v0c0,0.91-0.74,1.64-1.64,1.64H17.87
			c-0.91,0-1.64,0.74-1.64,1.64v0c0,0.91,0.74,1.64,1.64,1.64H37.3"/>
		<path class="st1" d="M74.86,26.84h-4.05c-0.45,0-0.81,0.36-0.81,0.81v0c0,0.45,0.36,0.81,0.81,0.81h5.63
			c0.45,0,0.81,0.36,0.81,0.81l0,0c0,0.45-0.36,0.81-0.81,0.81h-9.63"/>
		<path class="st2" d="M36.94,11.7c0,0-0.01,0-0.01,0c-0.02-0.58-0.54-1.04-1.19-1.04c-0.1,0-0.2,0.01-0.29,0.04v-0.33
			c0-0.59-0.53-1.08-1.19-1.08c-0.66,0-1.19,0.48-1.19,1.08v0.33c-0.09-0.02-0.19-0.04-0.29-0.04c-0.64,0-1.16,0.46-1.19,1.04
			c0,0-0.01,0-0.01,0c-0.66,0-1.19,0.48-1.19,1.08v5.47c0,0.59,0.53,1.08,1.19,1.08c0,0,0.01,0,0.01,0
			c0.02,0.58,0.54,1.04,1.19,1.04c0.1,0,0.2-0.01,0.29-0.04v0.33c0,0.59,0.53,1.08,1.19,1.08c0.66,0,1.19-0.48,1.19-1.08v-0.33
			c0.09,0.02,0.19,0.04,0.29,0.04c0.64,0,1.16-0.46,1.19-1.04c0,0,0.01,0,0.01,0c0.66,0,1.19-0.48,1.19-1.08v-5.47
			C38.13,12.18,37.6,11.7,36.94,11.7z"/>
		<path d="M60.73,45.97c0.34,0.1,0.59,0.3,0.67,0.58c0.2,0.67-0.6,1.57-1.77,2c-1.18,0.44-2.29,0.25-2.49-0.42
			c-0.09-0.31,0.03-0.67,0.31-1.01c-2.68,0.75-5.82,1.1-9.08-0.1c-7.66-2.81-17.09-5.09-17.09-1.57c0,3.52,7.65,6.37,17.09,6.37
			c9.44,0,17.09-2.85,17.09-6.37C65.46,43.78,63.62,44.8,60.73,45.97z"/>
		<g>
			<path class="st3" d="M33.85,14.01c0,0.09-0.04,0.12-0.13,0.11c-0.03,0-0.08-0.04-0.15-0.12c-0.06-0.07-0.09-0.1-0.1-0.09
				c-0.01,0-0.02,0.11-0.02,0.32c0,0.04,0,0.07-0.01,0.09c0,0.03-0.01,0.05-0.03,0.08c-0.01,0.02-0.02,0.03-0.02,0.05
				c0,0.03,0.01,0.05,0.02,0.08c0.02,0.03,0.03,0.05,0.03,0.07c0.02,0.18,0.02,0.3,0.02,0.34c0,0.11,0,0.18-0.01,0.2
				c-0.01,0.07-0.06,0.1-0.12,0.1c-0.03,0-0.05-0.01-0.07-0.04c-0.01-0.02-0.02-0.05-0.02-0.07l-0.01-0.27l0-0.17
				c0-0.05,0.01-0.1,0.04-0.16s0.04-0.09,0.04-0.09c0,0-0.01-0.02-0.02-0.04c-0.01-0.03-0.02-0.04-0.02-0.05
				c-0.01-0.03-0.02-0.11-0.03-0.25c0-0.04,0-0.08,0-0.11c0-0.06-0.01-0.1-0.02-0.11c-0.01-0.01-0.03,0-0.06,0.04l-0.04,0.05
				c-0.03,0-0.07,0.02-0.1,0.07c0,0,0,0.02,0,0.06c0,0.05-0.03,0.11-0.09,0.17c-0.06,0.05-0.11,0.08-0.16,0.08
				c-0.05,0-0.09-0.03-0.09-0.08c-0.01-0.05,0.01-0.09,0.06-0.12c0.03-0.01,0.07-0.05,0.14-0.12c0.02-0.02,0.04-0.04,0.06-0.04
				c0.01,0,0.02-0.01,0.03-0.01c0-0.03,0.01-0.08,0.04-0.15c0.16-0.21,0.24-0.38,0.24-0.49c0-0.07,0-0.11-0.01-0.13
				c-0.01-0.06-0.06-0.08-0.13-0.08c-0.02,0-0.08,0.01-0.18,0.02H32.8c-0.02,0-0.04-0.01-0.06-0.04c-0.02-0.02-0.03-0.05-0.04-0.06
				c0-0.04,0.02-0.07,0.06-0.09c0.03-0.02,0.06-0.03,0.09-0.03c0.16,0,0.25,0,0.29-0.01c0.05-0.01,0.08-0.04,0.1-0.08
				c0.01-0.01,0.01-0.06,0.02-0.12c0-0.01,0.01-0.02,0.03-0.03c0.01-0.01,0.02-0.03,0.04-0.06c0,0-0.01-0.02-0.04-0.03
				c-0.02-0.02-0.04-0.05-0.04-0.08c0-0.01,0-0.12-0.01-0.31c0-0.01,0.01-0.03,0.04-0.05c0.03-0.02,0.05-0.04,0.06-0.04
				c0.09,0,0.14,0.04,0.14,0.13c0,0.03,0,0.07,0,0.12c0,0.02,0,0.05,0,0.06c0,0.05-0.01,0.09-0.04,0.13
				c-0.03,0.03-0.04,0.06-0.04,0.07c0,0,0,0.02,0.01,0.04c0.01,0.02,0.02,0.04,0.02,0.04c0,0.04,0,0.07,0,0.11
				c0,0.05,0.02,0.08,0.06,0.1c0.05,0.01,0.11,0.02,0.16,0.02c0.1,0.02,0.15,0.06,0.15,0.11c0,0.03-0.02,0.05-0.05,0.07
				c-0.03,0.01-0.06,0.02-0.09,0.02c-0.1,0-0.17,0.03-0.21,0.1c-0.03,0.05-0.04,0.14-0.03,0.28c0.02,0.05,0.04,0.11,0.08,0.18
				c0.01,0.04,0.07,0.09,0.18,0.15C33.8,13.9,33.85,13.96,33.85,14.01z M35.83,14.97c0,0.07-0.03,0.11-0.1,0.14
				c-0.04,0.01-0.09,0.02-0.17,0.01l-0.48-0.02l-0.53-0.01c0,0-0.04,0-0.11,0.01c-0.06,0-0.09,0.01-0.1,0.01
				c-0.01,0-0.03-0.01-0.05-0.03c-0.02-0.02-0.04-0.04-0.05-0.04c-0.01,0-0.03,0.01-0.06,0.02c-0.03,0.02-0.05,0.03-0.07,0.03
				c-0.06,0.02-0.12,0.02-0.17,0.02h-0.16c-0.06,0-0.1-0.02-0.12-0.07c-0.01-0.04,0-0.07,0.03-0.09c0.04-0.03,0.07-0.04,0.11-0.04
				c0,0,0.02,0,0.05,0c0.03,0,0.05,0,0.06,0c0.05,0,0.07,0,0.09,0c0.02,0,0.05,0,0.09,0c0.02,0,0.05,0.01,0.07,0.04
				c0.03,0.02,0.05,0.03,0.06,0.03c0.02,0,0.05-0.01,0.07-0.04c0.03-0.03,0.06-0.04,0.08-0.04c0.08,0,0.18,0.01,0.3,0.01
				c0.08-0.01,0.16-0.02,0.23-0.02c0.05,0,0.29,0,0.72-0.01C35.76,14.89,35.83,14.92,35.83,14.97z M35.72,12.48
				c0,0.03-0.02,0.05-0.06,0.09c-0.04,0.03-0.07,0.05-0.09,0.05c-0.05-0.01-0.12-0.01-0.22-0.02c-0.03,0-0.1,0-0.21,0
				c-0.11,0-0.19,0.01-0.23,0.03c-0.04,0.03-0.11,0.07-0.2,0.14c-0.04,0.02-0.08,0.08-0.14,0.16c-0.03,0.03-0.06,0.06-0.09,0.09
				c-0.05,0.05-0.07,0.08-0.07,0.1s0.02,0.02,0.07,0.02c0.17,0,0.24,0,0.22,0c0.08,0,0.13,0.04,0.16,0.09
				c0.02,0.05,0.03,0.1,0.03,0.14c0,0.04-0.01,0.11-0.02,0.23c0,0.01-0.01,0.03-0.02,0.06l-0.02,0.04c0,0.02,0.01,0.06,0.03,0.12
				c0.02,0.06,0.02,0.12,0.02,0.17c0,0.03,0,0.05-0.01,0.09c0,0.01,0,0.04,0.01,0.1c0,0.06,0.01,0.09,0.01,0.11
				c0,0.16-0.04,0.29-0.11,0.38c-0.08,0.12-0.2,0.17-0.36,0.17c0,0-0.06-0.02-0.21-0.05c-0.06-0.02-0.09-0.03-0.11-0.04
				c-0.03-0.02-0.05-0.06-0.05-0.11c0-0.05,0.05-0.08,0.14-0.08c0.01,0,0.04,0.01,0.1,0.03c0.06,0.01,0.11,0.02,0.16,0.02
				c0.17,0,0.25-0.13,0.25-0.39v-0.31c0-0.03,0.01-0.08,0.04-0.16c0,0-0.01-0.02-0.03-0.06c-0.02-0.04-0.03-0.07-0.04-0.09
				c-0.01-0.13-0.02-0.21-0.02-0.23c-0.02-0.05-0.08-0.08-0.17-0.08c0,0-0.04,0.01-0.12,0.02c-0.07,0.01-0.11,0.02-0.11,0.02
				c-0.08,0-0.12-0.04-0.12-0.11c0-0.07,0.04-0.14,0.12-0.22c0.05-0.05,0.11-0.1,0.17-0.15c0.03-0.02,0.05-0.05,0.09-0.07
				c0.01-0.01,0.02-0.03,0.01-0.06c0-0.03-0.02-0.05-0.05-0.07c-0.03-0.02-0.06-0.03-0.09-0.03c0,0-0.03,0-0.07,0.01
				c-0.04,0.01-0.07,0.01-0.09,0.01c-0.03,0-0.05-0.01-0.06-0.02c-0.01-0.01-0.03-0.01-0.04-0.01c-0.01,0-0.04,0.01-0.09,0.04
				c-0.04,0.03-0.09,0.04-0.14,0.04c-0.04,0-0.08-0.01-0.13-0.02c-0.06-0.02-0.09-0.04-0.09-0.07c0-0.02,0.01-0.04,0.02-0.07
				c0.02-0.03,0.04-0.05,0.06-0.05c0.02,0,0.06,0,0.11-0.01c0.05-0.01,0.09-0.01,0.11-0.01c0.03,0,0.07,0.02,0.12,0.05
				c0,0,0.03-0.02,0.08-0.05c0.05-0.03,0.1-0.05,0.14-0.05c-0.01,0,0.02,0,0.09,0.01c0.06,0,0.11,0.01,0.16,0.01
				c0.02,0,0.08,0,0.17-0.01c0.09-0.01,0.15-0.01,0.2-0.01c0.13,0,0.33,0,0.6,0.01C35.66,12.39,35.72,12.42,35.72,12.48z
				 M34.51,14.21c0,0.11-0.08,0.17-0.25,0.17c0.01,0-0.01,0-0.06,0c-0.04,0-0.07,0-0.08,0c-0.02,0-0.05,0-0.07,0
				c-0.1,0-0.15-0.07-0.15-0.2c0-0.04,0-0.07,0.01-0.08c0-0.02,0.01-0.03,0.01-0.04c0-0.05,0.01-0.08,0.02-0.09l0.02-0.02
				l-0.02-0.04c-0.02-0.03-0.03-0.06-0.02-0.09v-0.09c0-0.01-0.01-0.02-0.01-0.04c0-0.02-0.01-0.03-0.01-0.03
				c0-0.05,0.02-0.09,0.05-0.14c0.03-0.05,0.07-0.08,0.11-0.08l0.23-0.01c0.07,0,0.12,0.02,0.16,0.06c0.05,0.03,0.07,0.08,0.06,0.15
				c0,0.03-0.01,0.07-0.03,0.1c-0.01,0.04-0.02,0.07-0.03,0.09c0,0.02,0.01,0.05,0.02,0.08c0.02,0.04,0.02,0.08,0.01,0.14
				c0,0.01,0,0.04,0.01,0.09C34.51,14.19,34.51,14.21,34.51,14.21z M34.37,13.84c0-0.01,0-0.02-0.01-0.04
				c-0.01-0.02-0.02-0.04-0.02-0.05c-0.01-0.03-0.01-0.06-0.01-0.09c-0.02-0.03-0.04-0.05-0.08-0.05c-0.07,0-0.11,0.03-0.14,0.1
				c-0.02,0.04-0.03,0.08-0.03,0.12c0,0.04-0.01,0.06-0.02,0.09c-0.02,0.02-0.02,0.04-0.02,0.04c0,0,0,0.01,0.01,0.03
				c0.01,0.01,0.02,0.02,0.02,0.02c0.02,0.08,0.03,0.12,0.04,0.14c0.02,0.02,0.06,0.04,0.11,0.04c0.05,0,0.08-0.01,0.09-0.03
				c0.02-0.02,0.02-0.06,0.02-0.1l0-0.12c0.01-0.01,0.02-0.02,0.02-0.03C34.37,13.88,34.37,13.86,34.37,13.84z M35.83,14.53
				c0.01,0.05,0,0.08-0.03,0.1c-0.03,0.02-0.06,0.03-0.1,0.03c-0.05,0-0.13-0.07-0.24-0.21c-0.04-0.05-0.07-0.07-0.09-0.07
				c-0.03,0-0.05,0.02-0.07,0.07c-0.03,0.06-0.07,0.11-0.14,0.17c-0.06,0.05-0.12,0.08-0.17,0.09c-0.03,0-0.05,0-0.07-0.02
				c-0.02-0.02-0.03-0.05-0.03-0.07c0-0.02,0.01-0.04,0.02-0.06c0.05-0.04,0.11-0.09,0.2-0.16c0.08-0.04,0.11-0.11,0.11-0.21
				c0-0.02,0-0.03-0.01-0.04c-0.02-0.05-0.04-0.1-0.07-0.14c-0.02-0.06-0.04-0.1-0.04-0.14c0,0,0-0.01,0-0.02
				c0.01-0.02,0.01-0.03,0.01-0.04c0-0.03-0.01-0.07-0.03-0.1c-0.03-0.05-0.04-0.09-0.05-0.11c-0.01-0.04-0.02-0.09-0.02-0.16
				c-0.05-0.12-0.07-0.19-0.07-0.22c0-0.01,0.01-0.02,0.03-0.04c0.02-0.01,0.02-0.02,0.02-0.02c0-0.04,0.04-0.05,0.12-0.05
				c0.14,0,0.21,0,0.19,0.01c0.05-0.01,0.13,0,0.23,0.03c0.12,0.04,0.18,0.1,0.18,0.18c0,0-0.01,0-0.02,0.02
				c-0.01,0.02-0.02,0.05-0.03,0.09c-0.01,0.07-0.02,0.13-0.05,0.16c-0.02,0.03-0.04,0.06-0.07,0.09c-0.02,0.02-0.03,0.05-0.03,0.06
				c0,0.01,0,0.03,0,0.05c0,0.03,0.01,0.05,0.01,0.07c0,0.03-0.01,0.09-0.04,0.18c-0.02,0.09-0.04,0.14-0.04,0.15
				c0,0.06,0.06,0.13,0.17,0.2C35.76,14.45,35.82,14.5,35.83,14.53z M35.47,13.71c0.01-0.04,0.01-0.08,0-0.12c0-0.05,0-0.13,0-0.21
				c-0.01-0.05-0.06-0.08-0.14-0.08c-0.05,0-0.09,0.02-0.12,0.07c-0.03,0.05-0.04,0.1-0.04,0.15c0,0.02,0,0.04,0.01,0.08
				c0.01,0.04,0.01,0.07,0.01,0.1c-0.02,0.05-0.01,0.08,0.01,0.09c0.02,0.02,0.05,0.05,0.06,0.11c0.02,0.07,0.04,0.1,0.07,0.1
				c0.02,0,0.04-0.03,0.06-0.09c0.02-0.08,0.04-0.12,0.05-0.13S35.45,13.74,35.47,13.71z"/>
			<path class="st3" d="M34.13,18.56c0,0.11-0.05,0.2-0.14,0.26c-0.09,0.06-0.19,0.09-0.31,0.09h-0.54c-0.23,0-0.35-0.11-0.36-0.33
				c-0.01-0.15,0-0.28,0.02-0.39c0-0.01,0.01-0.03,0.04-0.06c0.02-0.03,0.03-0.05,0.03-0.07c-0.01-0.04-0.02-0.09-0.02-0.17
				c0.04-0.2,0.24-0.29,0.6-0.28c0.18,0,0.3,0.01,0.35,0.01c0.1,0.01,0.17,0.03,0.21,0.06c0.08,0.06,0.12,0.21,0.12,0.44
				c0,0.05-0.01,0.09-0.03,0.11c-0.02,0.03-0.03,0.05-0.03,0.06c0.02,0.04,0.03,0.08,0.04,0.12C34.13,18.47,34.13,18.52,34.13,18.56
				z M34,18.23c-0.05-0.07-0.08-0.13-0.09-0.18c-0.01-0.07-0.02-0.12-0.04-0.15c-0.03-0.06-0.15-0.1-0.37-0.1
				c-0.1,0-0.2,0.01-0.29,0.02c-0.05,0-0.09,0.03-0.14,0.06c-0.06,0.05-0.1,0.11-0.12,0.18c0,0.01,0,0.02,0,0.03
				c0,0.01,0.01,0.04,0.03,0.07C33,18.2,33.01,18.24,33,18.28c0,0.03-0.01,0.06-0.01,0.09c0,0.17,0.04,0.27,0.12,0.29
				c0.08,0.02,0.19,0.03,0.33,0.03c0.18,0,0.31-0.03,0.39-0.08c0.07-0.04,0.1-0.12,0.09-0.25c0-0.01,0.01-0.02,0.04-0.04
				c0.03-0.03,0.04-0.05,0.04-0.06C34.01,18.25,34,18.24,34,18.23z M35.28,16.82c0,0.05-0.01,0.11-0.04,0.17
				c-0.03,0.06-0.06,0.1-0.1,0.13c-0.09,0.05-0.23,0.07-0.41,0.07c-0.15,0-0.31,0-0.46,0c-0.01,0-0.03-0.01-0.07-0.02
				c-0.03-0.02-0.05-0.03-0.07-0.03c-0.05,0.02-0.11,0.04-0.2,0.06c-0.02,0-0.06,0-0.11,0c-0.06,0-0.1,0.01-0.12,0.01
				c-0.14,0-0.25-0.03-0.32-0.09c-0.06-0.05-0.1-0.2-0.1-0.43c0-0.24,0.02-0.4,0.07-0.48c0.05-0.09,0.11-0.14,0.18-0.14
				c0.02,0,0.04,0,0.08,0.01c0.03,0.01,0.05,0.01,0.06,0.01c0.02,0,0.03,0,0.04-0.01c0.05-0.04,0.08-0.06,0.1-0.06
				c0.04-0.01,0.09-0.02,0.18-0.02c0.06,0,0.14-0.01,0.26-0.01c0.5,0,0.79,0.04,0.88,0.12c0.06,0.06,0.09,0.14,0.09,0.23
				c0,0.04-0.01,0.09-0.02,0.16c-0.02,0.1-0.03,0.16-0.04,0.17c0,0,0.01,0.03,0.04,0.06C35.26,16.78,35.28,16.81,35.28,16.82z
				 M35.09,16.68c0-0.01-0.01-0.04-0.03-0.08c-0.01-0.04-0.02-0.06-0.02-0.06c-0.01-0.05-0.02-0.1-0.03-0.15
				c-0.02-0.06-0.05-0.1-0.09-0.12c-0.11-0.05-0.26-0.07-0.46-0.07c-0.05,0-0.12,0-0.22,0.01c-0.1,0-0.17,0-0.22,0
				c-0.12,0-0.21-0.01-0.27-0.04c-0.01,0-0.02-0.01-0.03-0.01c-0.02,0-0.03,0.02-0.04,0.06c-0.01,0.04-0.02,0.07-0.05,0.09
				c-0.08,0.05-0.11,0.16-0.11,0.33c0,0.15,0.02,0.24,0.06,0.27c0.04,0.03,0.09,0.05,0.16,0.06c0.03,0,0.11,0.01,0.23,0.01
				c0.01,0,0.04,0.01,0.08,0.04c0.05,0.03,0.07,0.03,0.09,0.02c0.11-0.05,0.19-0.08,0.25-0.08c0.21,0.01,0.35,0.01,0.43,0
				c0.15-0.01,0.22-0.06,0.23-0.15c0-0.03,0.01-0.05,0.02-0.08C35.08,16.72,35.09,16.7,35.09,16.68z M35.79,18.52
				c0,0.16-0.02,0.26-0.09,0.31c-0.04,0.03-0.1,0.05-0.19,0.05c-0.09,0-0.24,0-0.47,0c-0.27,0-0.42-0.01-0.45-0.02
				c-0.08-0.02-0.12-0.08-0.15-0.16c0,0-0.01-0.07-0.02-0.18c0-0.03,0.02-0.1,0.05-0.23c0-0.01,0-0.04-0.01-0.08
				c-0.01-0.05-0.02-0.08-0.02-0.12c0-0.09,0.01-0.17,0.01-0.25c0.01-0.09,0.04-0.15,0.09-0.19c0.06-0.05,0.17-0.07,0.31-0.07
				c0.17,0,0.39,0.01,0.65,0.03c0.13,0.02,0.22,0.07,0.25,0.13c0.01,0.03,0.02,0.08,0.02,0.16c0,0.07-0.01,0.11-0.04,0.14
				c-0.03,0.03-0.04,0.06-0.04,0.11c0.02,0.04,0.03,0.08,0.05,0.12C35.78,18.34,35.79,18.43,35.79,18.52z M35.61,18.07
				c0-0.01-0.01-0.02-0.03-0.03c-0.01-0.01-0.03-0.03-0.04-0.06c-0.06-0.15-0.26-0.22-0.61-0.21c-0.19,0.01-0.28,0.12-0.27,0.32
				c0,0.06-0.01,0.09-0.04,0.1c-0.03,0.02-0.04,0.04-0.04,0.06c0.01,0.03,0.03,0.06,0.04,0.09c0.02,0.05,0.03,0.13,0.03,0.25
				c0,0.05,0.11,0.08,0.34,0.08c0.05,0,0.12,0,0.21,0c0.08,0,0.13,0,0.15,0c0.05,0,0.09-0.01,0.13-0.02
				c0.06-0.03,0.09-0.07,0.09-0.13c0-0.01,0-0.03-0.01-0.06c0-0.02,0-0.04,0-0.05c0-0.05,0.01-0.11,0.02-0.19
				C35.6,18.14,35.61,18.09,35.61,18.07z"/>
		</g>
	</g>
	<g>
		<text transform="matrix(1 0 0 1 85.5389 33.6611)" class="st4 st5">艾饕</text>
		<text transform="matrix(1.3585 0 0 1 156.7977 22.2456)"><tspan x="0" y="0" class="st6 st7 st8">Aiyi</tspan><tspan x="0" y="14.93" class="st6 st7 st8">Tao</tspan></text>
		<g>
			<g>
				<circle class="st2" cx="92.84" cy="47.48" r="4.49"/>
				<path class="st3" d="M91.17,47.73h-0.21c-0.06,0-0.1-0.02-0.13-0.05c-0.02-0.01-0.03-0.02-0.03-0.04v0.2
					c0,0.89-0.16,1.61-0.47,2.19c-0.04,0.05-0.08,0.08-0.13,0.08c-0.04,0.01-0.09,0-0.13-0.03c-0.08-0.06-0.1-0.15-0.04-0.26
					c0.27-0.57,0.41-1.27,0.41-2.09v-1.2c0-0.14,0.03-0.26,0.11-0.35c0.08-0.08,0.19-0.12,0.35-0.12h4.57c0.06,0,0.1,0.02,0.14,0.05
					c0.04,0.04,0.05,0.08,0.05,0.13c0,0.06-0.02,0.11-0.05,0.13c-0.04,0.03-0.09,0.05-0.14,0.05h-4.43c-0.16,0-0.25,0.08-0.25,0.24
					v0.81c0.01-0.02,0.02-0.03,0.03-0.04c0.03-0.03,0.07-0.05,0.13-0.05h0.97v-0.39H91.2c-0.06,0-0.1-0.02-0.13-0.05
					c-0.03-0.03-0.04-0.07-0.04-0.12c0-0.05,0.01-0.09,0.04-0.11c0.03-0.03,0.07-0.05,0.13-0.05h1.82c0.05,0,0.09,0.01,0.12,0.04
					c0.03,0.03,0.04,0.07,0.04,0.12c0,0.05-0.01,0.09-0.04,0.11c-0.03,0.04-0.07,0.05-0.12,0.05h-0.73v0.39h0.95
					c0.05,0,0.09,0.01,0.12,0.04c0.03,0.03,0.04,0.07,0.04,0.12c0,0.05-0.01,0.09-0.04,0.11c-0.03,0.04-0.07,0.05-0.12,0.05H93v2.32
					c0,0.06-0.02,0.1-0.05,0.14c-0.03,0.03-0.07,0.05-0.13,0.05c-0.05,0-0.09-0.02-0.13-0.05c-0.03-0.04-0.05-0.08-0.05-0.14v-0.36
					l-1.75,0.22c-0.06,0.01-0.11,0-0.14-0.03c-0.04-0.03-0.06-0.07-0.07-0.11c-0.01-0.06,0-0.1,0.03-0.14
					c0.03-0.04,0.08-0.07,0.14-0.07l0.31-0.03V47.73z M90.92,45.81c-0.11-0.01-0.19-0.04-0.24-0.09c-0.06-0.06-0.09-0.14-0.09-0.23
					v-0.45c0-0.09,0.03-0.16,0.08-0.23c0.07-0.07,0.15-0.11,0.25-0.1h1.56c0.09,0,0.17,0.04,0.23,0.1c0.06,0.06,0.08,0.14,0.08,0.23
					v0.45c0,0.08-0.03,0.16-0.09,0.22c-0.06,0.06-0.13,0.09-0.22,0.1H90.92z M91.11,45.05c-0.06,0-0.1,0.01-0.13,0.04
					c-0.03,0.04-0.05,0.08-0.04,0.13v0.12c0,0.05,0.02,0.09,0.05,0.11c0.03,0.02,0.07,0.03,0.12,0.03h1.18
					c0.04,0,0.08-0.02,0.1-0.04c0.02-0.02,0.04-0.05,0.04-0.1v-0.12c0-0.05-0.01-0.09-0.03-0.13c-0.02-0.03-0.06-0.05-0.11-0.05
					H91.11z M92.65,48.07v-0.34h-1.13v0.34H92.65z M92.65,48.74V48.4h-1.13v0.34H92.65z M92.65,49.35v-0.28h-1.13v0.42L92.65,49.35z
					 M93.25,48.64c-0.05,0.01-0.09,0-0.13-0.04c-0.05-0.05-0.07-0.09-0.07-0.13c0-0.04,0.02-0.1,0.07-0.16
					c0.31-0.46,0.46-1,0.46-1.63c0-0.06,0.02-0.11,0.05-0.14c0.03-0.03,0.07-0.05,0.13-0.05c0.06,0,0.1,0.02,0.13,0.05
					c0.04,0.05,0.05,0.2,0.03,0.47h1.5c0.05,0,0.09,0.01,0.12,0.04c0.03,0.03,0.04,0.07,0.04,0.12c0,0.05-0.01,0.09-0.04,0.11
					c-0.03,0.04-0.07,0.05-0.12,0.05h-0.26c-0.1,0.67-0.29,1.24-0.56,1.71c0.29,0.39,0.61,0.68,0.96,0.87
					c0.05,0.03,0.08,0.07,0.09,0.12c0.01,0.05,0,0.09-0.02,0.13c-0.04,0.05-0.07,0.07-0.11,0.08c-0.02,0-0.04,0-0.06,0
					c-0.34-0.14-0.69-0.44-1.05-0.91c-0.29,0.37-0.65,0.67-1.09,0.89c-0.06,0.03-0.12,0.03-0.16,0.02c-0.04-0.02-0.07-0.05-0.1-0.09
					c-0.02-0.05-0.03-0.1-0.01-0.15c0.02-0.04,0.05-0.07,0.1-0.1c0.43-0.2,0.78-0.48,1.06-0.84c-0.21-0.31-0.37-0.69-0.49-1.16
					C93.54,48.36,93.38,48.61,93.25,48.64z M93.51,45.81c-0.1,0-0.18-0.03-0.23-0.08c-0.06-0.06-0.09-0.13-0.08-0.22v-0.45
					c0-0.08,0.03-0.16,0.08-0.22c0.06-0.07,0.14-0.1,0.23-0.1h1.59c0.09,0,0.16,0.04,0.22,0.1c0.05,0.06,0.08,0.13,0.08,0.22v0.45
					c0,0.08-0.03,0.15-0.08,0.21c-0.05,0.06-0.12,0.09-0.21,0.09H93.51z M93.71,45.02c-0.05,0-0.09,0.01-0.11,0.04
					c-0.03,0.03-0.05,0.07-0.04,0.12v0.22c0,0.05,0.01,0.09,0.04,0.1c0.04,0.02,0.07,0.03,0.11,0.03h1.2c0.05,0,0.08-0.01,0.1-0.04
					c0.02-0.02,0.03-0.06,0.04-0.1v-0.22c0-0.05-0.01-0.09-0.03-0.12c-0.02-0.03-0.05-0.04-0.1-0.04H93.71z M94.4,48.73
					c0.2-0.38,0.33-0.85,0.42-1.41h-0.9c0.04,0.24,0.11,0.5,0.2,0.8C94.21,48.35,94.3,48.55,94.4,48.73z"/>
			</g>
			<g>
				<circle class="st2" cx="104.39" cy="47.48" r="4.49"/>
				<path class="st3" d="M102.5,48.18c0-0.06-0.03-0.11-0.07-0.16c-0.04-0.05-0.1-0.08-0.18-0.08h-0.47c-0.06,0-0.11-0.02-0.15-0.05
					c-0.03-0.04-0.04-0.08-0.05-0.13c0.01-0.06,0.03-0.1,0.05-0.13c0.04-0.03,0.08-0.05,0.14-0.05h0.56c0.16,0,0.28,0.04,0.37,0.14
					c0.09,0.1,0.14,0.22,0.14,0.37v1.04c0.08,0.29,0.41,0.49,1,0.6c0.25,0.02,1.3,0.02,3.15,0.01c0.07,0,0.12,0.01,0.16,0.05
					c0.04,0.03,0.07,0.08,0.07,0.14c0,0.06-0.01,0.1-0.04,0.14c-0.04,0.04-0.1,0.07-0.16,0.07c-0.89-0.01-1.73-0.01-2.51-0.01
					c-0.94,0-1.55-0.19-1.82-0.57c-0.13,0.19-0.26,0.32-0.39,0.41c-0.34,0.2-0.56,0.27-0.68,0.23c-0.04-0.02-0.07-0.05-0.08-0.1
					c-0.04-0.12,0.01-0.19,0.13-0.23c0.48-0.18,0.76-0.44,0.82-0.79V48.18z M101.61,46.25c-0.01-0.04,0-0.09,0.02-0.14
					c0.02-0.04,0.06-0.07,0.11-0.08c0.05-0.01,0.1,0,0.15,0.03c0.26,0.15,0.54,0.36,0.83,0.63c0.04,0.05,0.06,0.09,0.07,0.13
					c0,0.05-0.01,0.1-0.05,0.14c-0.04,0.04-0.08,0.05-0.13,0.05c-0.05,0-0.1-0.02-0.14-0.06c-0.26-0.26-0.52-0.46-0.76-0.59
					C101.66,46.33,101.63,46.29,101.61,46.25z M101.71,44.98c-0.01-0.04,0-0.09,0.02-0.14c0.02-0.04,0.06-0.07,0.11-0.08
					c0.05-0.01,0.1,0,0.15,0.03c0.26,0.15,0.54,0.36,0.83,0.63c0.04,0.05,0.06,0.09,0.07,0.13c0,0.05-0.01,0.1-0.05,0.14
					c-0.04,0.04-0.08,0.05-0.13,0.05c-0.05,0-0.1-0.02-0.14-0.06c-0.26-0.26-0.52-0.46-0.76-0.59
					C101.76,45.06,101.72,45.03,101.71,44.98z M104.2,47.65h-0.76c-0.06,0-0.1-0.02-0.13-0.05c-0.03-0.04-0.05-0.08-0.05-0.13
					c0-0.05,0.02-0.09,0.05-0.13c0.04-0.03,0.08-0.05,0.13-0.05h0.76v-0.38c-0.03,0-0.06,0-0.08,0c-0.24,0-0.4,0-0.49,0
					c-0.12-0.01-0.21-0.05-0.27-0.11c-0.07-0.07-0.11-0.16-0.11-0.26v-1.31c0-0.12,0.04-0.23,0.12-0.32
					c0.08-0.09,0.19-0.13,0.33-0.13h0.85c0.12,0,0.22,0.04,0.3,0.11c0.07,0.08,0.1,0.18,0.11,0.29v0.43c0,0.1-0.04,0.2-0.1,0.28
					c-0.08,0.08-0.18,0.13-0.31,0.13h-0.96v0.33c0,0.07,0.02,0.12,0.06,0.15c0.04,0.02,0.1,0.04,0.18,0.04c0.2,0,0.39,0,0.59,0
					c0.2,0,0.3-0.1,0.3-0.3c0-0.06,0.01-0.1,0.04-0.14c0.03-0.03,0.07-0.05,0.13-0.05c0.06,0,0.1,0.02,0.14,0.06
					c0.03,0.03,0.05,0.07,0.05,0.13c0.01,0.22-0.01,0.37-0.04,0.45c-0.08,0.14-0.21,0.21-0.39,0.22c-0.03,0-0.06,0-0.09,0.01v0.38
					h1.15v-0.4c-0.2-0.03-0.32-0.07-0.37-0.11c-0.07-0.07-0.11-0.16-0.11-0.26v-1.29c0-0.12,0.04-0.23,0.12-0.32
					c0.08-0.09,0.19-0.13,0.33-0.13h0.78c0.12,0,0.22,0.04,0.3,0.11c0.07,0.08,0.1,0.18,0.11,0.29v0.43c0,0.1-0.04,0.2-0.1,0.28
					c-0.08,0.08-0.18,0.13-0.31,0.13h-0.88v0.32c0,0.07,0.02,0.12,0.06,0.14c0.04,0.02,0.1,0.04,0.17,0.04c0.19,0,0.37,0,0.56,0
					c0.21,0,0.31-0.1,0.31-0.3c0-0.06,0.01-0.1,0.04-0.14c0.03-0.03,0.07-0.05,0.13-0.05c0.06,0,0.1,0.02,0.14,0.06
					c0.03,0.03,0.05,0.07,0.05,0.13c0.01,0.21-0.01,0.36-0.04,0.45c-0.04,0.08-0.09,0.13-0.14,0.16c-0.08,0.04-0.35,0.07-0.79,0.07
					v0.4h0.73c0.06,0,0.1,0.01,0.13,0.04c0.03,0.04,0.05,0.08,0.05,0.13c0,0.05-0.02,0.09-0.05,0.13c-0.03,0.04-0.07,0.05-0.13,0.05
					h-0.73v0.53H107c0.06,0,0.1,0.01,0.13,0.04c0.03,0.04,0.05,0.08,0.05,0.13c0,0.05-0.02,0.09-0.05,0.13
					c-0.03,0.04-0.07,0.05-0.13,0.05h-3.76c-0.06,0-0.1-0.02-0.13-0.05c-0.03-0.04-0.05-0.08-0.05-0.13c0-0.05,0.02-0.09,0.05-0.13
					c0.04-0.03,0.08-0.05,0.13-0.05h0.95V47.65z M104.4,48.6c0.04,0,0.09,0.02,0.13,0.05c0.03,0.04,0.05,0.08,0.05,0.12
					c0,0.05-0.03,0.1-0.07,0.14c-0.26,0.22-0.5,0.38-0.71,0.5c-0.25,0.13-0.41,0.18-0.48,0.14c-0.04-0.02-0.07-0.05-0.08-0.1
					c-0.01-0.05-0.01-0.09,0.01-0.13c0.03-0.04,0.07-0.07,0.12-0.09c0.32-0.11,0.62-0.3,0.91-0.57
					C104.3,48.62,104.35,48.6,104.4,48.6z M103.59,45.67h0.87c0.04,0,0.08-0.01,0.1-0.04c0.02-0.03,0.03-0.06,0.04-0.1v-0.26
					c-0.01-0.05-0.02-0.08-0.04-0.1c-0.03-0.03-0.06-0.04-0.1-0.04h-0.72c-0.05,0-0.09,0.01-0.11,0.04
					c-0.02,0.03-0.04,0.07-0.04,0.1V45.67z M105.71,48.18v-0.53h-1.15v0.53H105.71z M105.58,45.67h0.8c0.04,0,0.08-0.01,0.1-0.04
					c0.02-0.03,0.03-0.06,0.04-0.1v-0.26c-0.01-0.05-0.02-0.08-0.04-0.1c-0.03-0.03-0.06-0.04-0.1-0.04h-0.65
					c-0.05,0-0.09,0.01-0.11,0.04c-0.02,0.03-0.04,0.07-0.04,0.1V45.67z M105.68,48.84c-0.01-0.04-0.01-0.09,0.01-0.13
					c0.03-0.05,0.06-0.08,0.1-0.1c0.04-0.02,0.09-0.01,0.14,0.01c0.01,0,0.03,0.01,0.04,0.02c0.67,0.39,1.02,0.63,1.03,0.73
					c0.01,0.05,0,0.09-0.03,0.13c-0.04,0.04-0.07,0.07-0.11,0.07c-0.05,0-0.1-0.01-0.14-0.05c-0.37-0.28-0.68-0.48-0.93-0.59
					C105.73,48.92,105.7,48.88,105.68,48.84z"/>
			</g>
			<g>
				<circle class="st2" cx="115.94" cy="47.48" r="4.49"/>
				<path class="st3" d="M114.08,47.67c0.04-0.02,0.09-0.03,0.14-0.02c0.05,0.01,0.09,0.03,0.11,0.07c0.02,0.04,0.03,0.09,0.02,0.15
					c-0.11,0.53-0.24,0.96-0.39,1.29c-0.28,0.63-0.5,0.96-0.65,1c-0.04,0-0.09-0.01-0.13-0.04c-0.04-0.04-0.06-0.07-0.07-0.11
					c-0.01-0.06,0.01-0.1,0.04-0.14c0.45-0.64,0.74-1.33,0.86-2.06C114.01,47.74,114.04,47.7,114.08,47.67z M113.18,46.47
					c-0.02-0.04-0.02-0.09,0.01-0.14c0.02-0.05,0.05-0.08,0.1-0.1c0.05-0.01,0.1-0.01,0.15,0.01c0.26,0.11,0.53,0.27,0.83,0.49
					c0.05,0.04,0.08,0.08,0.08,0.13c0,0.04-0.01,0.09-0.04,0.14c-0.03,0.04-0.07,0.07-0.11,0.07c-0.05,0-0.1-0.01-0.15-0.05
					c-0.26-0.2-0.51-0.35-0.75-0.45C113.23,46.54,113.2,46.51,113.18,46.47z M113.29,44.97c-0.02-0.04-0.01-0.09,0.01-0.14
					c0.03-0.04,0.06-0.07,0.1-0.09c0.05-0.01,0.1-0.01,0.15,0.02c0.27,0.13,0.56,0.32,0.85,0.56c0.05,0.04,0.07,0.09,0.08,0.13
					c0,0.05-0.01,0.1-0.04,0.14c-0.04,0.04-0.07,0.06-0.11,0.07c-0.05,0-0.1-0.01-0.15-0.05c-0.27-0.23-0.53-0.41-0.78-0.52
					C113.35,45.06,113.31,45.02,113.29,44.97z M116.49,48.16c0,0,0,0.01,0,0.01c-0.3,0.6-0.66,1.05-1.07,1.35
					c-0.25,0.19-0.53,0.34-0.85,0.45c-0.07,0.02-0.12,0.03-0.15,0.02c-0.04-0.01-0.08-0.04-0.11-0.09c-0.05-0.13-0.02-0.21,0.1-0.25
					c0.21-0.09,0.4-0.18,0.59-0.28c0.43-0.26,0.8-0.67,1.11-1.22h-0.69c-0.1,0.15-0.21,0.28-0.32,0.39
					c-0.36,0.34-0.61,0.5-0.74,0.47c-0.05-0.01-0.09-0.03-0.11-0.07c-0.07-0.1,0.02-0.23,0.27-0.38c0.39-0.27,0.68-0.65,0.87-1.15
					h-0.79c-0.06,0-0.1-0.02-0.13-0.05c-0.03-0.04-0.05-0.08-0.05-0.13c0-0.05,0.02-0.09,0.05-0.13c0.04-0.03,0.08-0.05,0.13-0.05
					h4.02c0.06,0,0.1,0.01,0.13,0.04c0.03,0.04,0.05,0.08,0.05,0.13c0,0.05-0.02,0.09-0.05,0.13c-0.03,0.04-0.07,0.05-0.13,0.05
					h-2.85c-0.06,0.14-0.11,0.26-0.16,0.39h2.48c0.12,0,0.22,0.03,0.29,0.1c0.07,0.06,0.12,0.13,0.15,0.22
					c0.02,0.05,0.02,0.27,0.02,0.65c-0.04,0.63-0.1,1.02-0.19,1.16c-0.07,0.1-0.19,0.17-0.35,0.22c-0.12,0.04-0.27,0.04-0.44,0.02
					c-0.37-0.06-0.58-0.14-0.62-0.25c-0.02-0.05-0.01-0.1,0.01-0.14c0.04-0.1,0.12-0.13,0.25-0.08c0.28,0.12,0.5,0.16,0.65,0.13
					c0.1-0.03,0.18-0.08,0.23-0.16c0.05-0.08,0.09-0.24,0.1-0.47c0.01-0.25,0.02-0.48,0.02-0.7c0-0.12-0.02-0.2-0.06-0.25
					c-0.06-0.07-0.13-0.1-0.22-0.1h-0.41c-0.19,0.64-0.44,1.12-0.75,1.44c-0.2,0.22-0.44,0.41-0.72,0.57
					c-0.06,0.03-0.11,0.05-0.14,0.04c-0.05,0-0.09-0.03-0.11-0.07c-0.02-0.02-0.03-0.04-0.03-0.05c-0.03-0.09,0.1-0.23,0.38-0.42
					c0.49-0.39,0.82-0.9,1-1.53H116.49z M115.46,46.7c-0.16,0-0.26-0.05-0.33-0.13c-0.07-0.09-0.1-0.19-0.1-0.3v-1.09
					c0-0.13,0.04-0.23,0.12-0.31c0.08-0.08,0.18-0.13,0.3-0.13h2.39c0.13,0,0.24,0.04,0.31,0.12c0.08,0.08,0.12,0.19,0.12,0.31v1.09
					c0,0.12-0.04,0.22-0.12,0.31c-0.08,0.08-0.19,0.13-0.31,0.13H115.46z M117.93,45.54v-0.25c0-0.05-0.02-0.1-0.05-0.14
					c-0.04-0.04-0.09-0.05-0.17-0.05h-2.13c-0.07,0-0.12,0.01-0.14,0.05c-0.03,0.03-0.05,0.08-0.05,0.14v0.25H117.93z M115.39,45.89
					v0.23c0,0.08,0.02,0.13,0.05,0.17c0.02,0.04,0.07,0.05,0.14,0.05h2.13c0.07,0,0.12-0.02,0.16-0.06c0.04-0.04,0.06-0.1,0.06-0.17
					v-0.23H115.39z"/>
			</g>
			<g>
				<circle class="st2" cx="127.49" cy="47.48" r="4.49"/>
				<path class="st3" d="M127.47,44.84c0-0.06,0.01-0.1,0.04-0.13c0.04-0.03,0.08-0.05,0.13-0.05c0.05,0,0.09,0.02,0.13,0.05
					c0.04,0.04,0.05,0.08,0.05,0.13v0.3h2.21c0.06,0,0.1,0.02,0.14,0.05c0.04,0.04,0.05,0.08,0.05,0.13c0,0.06-0.02,0.11-0.05,0.13
					c-0.04,0.03-0.09,0.05-0.14,0.05h-4.31c-0.16,0-0.25,0.08-0.25,0.25v2.18c0,0.87-0.15,1.59-0.44,2.18
					c-0.04,0.06-0.08,0.09-0.13,0.09c-0.05,0.01-0.09,0-0.13-0.03c-0.08-0.06-0.1-0.15-0.04-0.26c0.26-0.58,0.38-1.28,0.38-2.09
					v-2.2c0-0.14,0.03-0.26,0.11-0.35c0.08-0.08,0.19-0.12,0.35-0.12h1.88V44.84z M126.44,47.68v1.45c0.69-0.17,1.17-0.32,1.44-0.44
					c0.06-0.02,0.11-0.03,0.16-0.01c0.04,0.02,0.07,0.05,0.1,0.1c0.02,0.05,0.02,0.1,0.01,0.15c-0.02,0.04-0.05,0.08-0.1,0.1
					c-0.12,0.05-0.25,0.1-0.38,0.15c-1.24,0.41-1.94,0.56-2.11,0.44c-0.05-0.03-0.07-0.07-0.08-0.13c-0.01-0.06,0-0.11,0.03-0.15
					c0.03-0.06,0.23-0.1,0.59-0.14v-2.7c0-0.15,0.03-0.28,0.11-0.37c0.08-0.1,0.19-0.15,0.33-0.15c1.19-0.01,2.23-0.12,3.12-0.32
					c0.07-0.01,0.12,0,0.16,0.02c0.04,0.03,0.07,0.07,0.08,0.12c0.01,0.05,0,0.1-0.02,0.14c-0.06,0.09-0.55,0.19-1.46,0.29
					c0,0.34,0.03,0.7,0.08,1.09h1.42c0.06,0,0.1,0.01,0.13,0.04c0.03,0.04,0.05,0.08,0.05,0.13c0,0.05-0.02,0.09-0.05,0.13
					c-0.03,0.04-0.07,0.05-0.13,0.05h-1.36c0.16,0.87,0.45,1.54,0.89,2.01c0.11,0.12,0.19,0.18,0.25,0.17
					c0.04,0,0.09-0.05,0.13-0.17c0.12-0.51,0.19-0.77,0.21-0.78c0.04-0.03,0.09-0.04,0.15-0.02c0.04,0.02,0.08,0.04,0.11,0.08
					c0.02,0.05,0.03,0.1,0.02,0.15c-0.09,0.54-0.16,0.87-0.22,0.99c-0.07,0.12-0.17,0.18-0.3,0.19c-0.1,0-0.2-0.03-0.29-0.08
					c-0.03-0.02-0.06-0.04-0.08-0.05c-0.6-0.43-1-1.26-1.21-2.48H126.44z M128.51,49.79c0.06,0,0.1,0.01,0.13,0.04
					c0.03,0.04,0.05,0.08,0.05,0.13c0,0.05-0.02,0.09-0.05,0.13c-0.03,0.04-0.07,0.05-0.13,0.05h-2.27c-0.06,0-0.1-0.02-0.13-0.05
					c-0.03-0.04-0.05-0.08-0.05-0.13c0-0.05,0.02-0.09,0.05-0.13c0.04-0.03,0.08-0.05,0.13-0.05H128.51z M128.04,46.27
					c-0.53,0.04-0.98,0.07-1.36,0.07c-0.08,0-0.15,0.02-0.19,0.07c-0.04,0.04-0.06,0.1-0.05,0.17v0.75h1.68c0-0.01,0-0.01,0-0.02
					C128.07,46.94,128.04,46.59,128.04,46.27z"/>
			</g>
			<g>
				<circle class="st2" cx="141.94" cy="47.92" r="4.49"/>
				<path class="st3" d="M139.21,49.59c-0.04-0.02-0.06-0.06-0.08-0.11c-0.02-0.05-0.01-0.1,0.01-0.14
					c0.01-0.04,0.04-0.07,0.11-0.08c0.57-0.12,1.16-0.47,1.77-1.04c-0.13-0.09-0.19-0.24-0.19-0.44v-0.66
					c0-0.06,0.02-0.11,0.05-0.14c0.03-0.03,0.07-0.05,0.13-0.05c0.05,0,0.09,0.02,0.13,0.05c0.04,0.04,0.05,0.09,0.05,0.15v0.62
					c0,0.09,0.02,0.16,0.07,0.19c0.04,0.03,0.1,0.04,0.16,0.05c0.48,0,0.92,0,1.32,0c0.24-0.02,0.36-0.1,0.36-0.24
					c0-0.19,0.02-0.3,0.06-0.34c0.03-0.03,0.09-0.05,0.16-0.04c0.1,0.01,0.14,0.09,0.13,0.23c0,0.02,0,0.03,0.01,0.04
					c0,0.3-0.09,0.51-0.26,0.63c-0.13,0.06-0.73,0.08-1.79,0.07c-0.14,0.14-0.27,0.27-0.39,0.38h2.5c0.12,0,0.21,0.03,0.27,0.08
					c0.06,0.05,0.1,0.12,0.12,0.22c0.01,0.08-0.01,0.18-0.06,0.28c-0.31,0.29-0.74,0.54-1.29,0.75c-0.05,0.02-0.1,0.04-0.13,0.05
					c0.03,0.01,0.06,0.02,0.08,0.03c0.71,0.26,1.4,0.35,2.06,0.28c0.06,0,0.11,0.01,0.15,0.04c0.03,0.03,0.05,0.07,0.05,0.13
					c0,0.06-0.02,0.1-0.05,0.13c-0.03,0.04-0.08,0.06-0.14,0.06c-0.02,0-0.04,0-0.05,0.01c-0.88,0.04-1.75-0.13-2.58-0.52
					c-0.76,0.21-1.64,0.38-2.64,0.49c-0.05-0.01-0.09-0.03-0.12-0.07c-0.02-0.04-0.03-0.08-0.03-0.13c0.01-0.05,0.03-0.09,0.07-0.12
					c0.04-0.02,0.09-0.03,0.14-0.03c0.73-0.09,1.46-0.21,2.2-0.36c-0.4-0.25-0.78-0.54-1.14-0.88
					C139.75,49.51,139.35,49.66,139.21,49.59z M143.07,46.43c0.1-0.11,0.2-0.25,0.31-0.4c0.18-0.26,0.29-0.39,0.32-0.41
					c0.04-0.02,0.09-0.01,0.13,0.01c0.05,0.02,0.08,0.06,0.09,0.11c0.01,0.04,0,0.09-0.02,0.14c-0.05,0.07-0.13,0.19-0.24,0.35
					c-0.07,0.09-0.13,0.17-0.18,0.24h0.7c0.12,0,0.22,0.02,0.29,0.07c0.06,0.04,0.12,0.1,0.16,0.17c0.05,0.08,0.07,0.18,0.05,0.3
					c-0.02,0.12-0.07,0.3-0.16,0.52c-0.03,0.06-0.06,0.1-0.1,0.12c-0.05,0.02-0.09,0.02-0.13,0c-0.1-0.05-0.13-0.13-0.1-0.25
					c0.11-0.23,0.15-0.38,0.11-0.45c-0.06-0.08-0.15-0.12-0.27-0.12h-4.09c-0.11,0-0.19,0.03-0.25,0.1
					c-0.05,0.06-0.08,0.14-0.08,0.24v0.3c0,0.06-0.02,0.11-0.05,0.14c-0.04,0.03-0.08,0.04-0.13,0.05c-0.06-0.01-0.1-0.03-0.13-0.05
					c-0.03-0.04-0.05-0.09-0.05-0.14v-0.41c0-0.17,0.05-0.31,0.16-0.42c0.1-0.1,0.24-0.16,0.41-0.16h0.65
					c-0.02-0.02-0.04-0.04-0.05-0.07c-0.08-0.18-0.17-0.32-0.27-0.44c-0.04-0.05-0.05-0.1-0.05-0.14c0-0.04,0.02-0.08,0.05-0.11
					c-0.33,0-0.52-0.02-0.54-0.05c-0.03-0.04-0.04-0.08-0.04-0.13c0-0.05,0.02-0.09,0.05-0.13c0.04-0.03,0.08-0.05,0.13-0.05
					c0.65,0,1.41-0.03,2.28-0.08c0.87-0.06,1.53-0.13,1.96-0.22c0.06-0.01,0.1-0.01,0.14,0.02c0.04,0.02,0.06,0.06,0.07,0.11
					c0.01,0.05,0,0.1-0.01,0.14c-0.02,0.04-0.06,0.07-0.12,0.08c-0.64,0.15-1.86,0.26-3.67,0.32c0.27,0.28,0.39,0.5,0.36,0.68
					c-0.01,0.03-0.03,0.06-0.05,0.07h1.12c-0.02-0.02-0.03-0.04-0.03-0.06c-0.06-0.16-0.12-0.3-0.2-0.41
					c-0.03-0.05-0.05-0.1-0.04-0.14c0.02-0.05,0.04-0.09,0.08-0.11c0.04-0.03,0.08-0.04,0.13-0.02c0.12,0.03,0.24,0.22,0.36,0.57
					c0.02,0.06,0.01,0.12-0.01,0.18h0.9C143.04,46.47,143.06,46.45,143.07,46.43z M140.19,47.06c0.04-0.02,0.08-0.02,0.13-0.01
					c0.05,0.02,0.08,0.05,0.1,0.08c0.02,0.05,0.02,0.1,0,0.16c-0.22,0.49-0.45,0.83-0.69,1.04c-0.05,0.04-0.1,0.06-0.14,0.06
					c-0.04,0-0.08-0.02-0.12-0.06c-0.03-0.04-0.05-0.08-0.05-0.12c0.01-0.05,0.03-0.1,0.07-0.14c0.25-0.24,0.45-0.54,0.6-0.9
					C140.12,47.11,140.15,47.08,140.19,47.06z M142,49.9c0.1-0.04,0.21-0.08,0.32-0.11c0.54-0.2,0.9-0.39,1.09-0.57
					c0.02-0.04,0.03-0.07,0.03-0.1c-0.01-0.03-0.05-0.05-0.11-0.05h-2.49c0.2,0.18,0.42,0.35,0.68,0.53
					C141.69,49.71,141.85,49.81,142,49.9z M141.76,47.1c0-0.04,0.01-0.08,0.05-0.12c0.04-0.04,0.08-0.05,0.13-0.05
					s0.09,0.02,0.13,0.06c0.33,0.34,0.5,0.58,0.5,0.71c-0.01,0.05-0.03,0.09-0.07,0.11c-0.05,0.02-0.09,0.03-0.13,0.03
					c-0.05-0.01-0.09-0.04-0.12-0.1c-0.18-0.24-0.32-0.41-0.42-0.51C141.78,47.19,141.76,47.15,141.76,47.1z M143.5,47.17
					c0-0.04,0.03-0.08,0.07-0.11c0.04-0.03,0.08-0.05,0.13-0.04c0.05,0.01,0.09,0.04,0.13,0.08c0.49,0.75,0.72,1.18,0.69,1.29
					c-0.02,0.04-0.05,0.07-0.09,0.1c-0.05,0.02-0.09,0.02-0.13,0.01c-0.05-0.02-0.08-0.06-0.11-0.11c-0.19-0.4-0.4-0.76-0.64-1.09
					C143.51,47.27,143.5,47.22,143.5,47.17z"/>
			</g>
			<g>
				<circle class="st2" cx="153.49" cy="47.92" r="4.49"/>
				<path class="st3" d="M152.72,47.42c-0.07,0.07-0.14,0.13-0.2,0.2c-0.89,0.81-1.47,1.18-1.73,1.14c-0.04-0.02-0.07-0.05-0.1-0.1
					c-0.06-0.12-0.04-0.21,0.07-0.26c1.18-0.56,2.16-1.5,2.95-2.81h-2.84c-0.06,0-0.1-0.02-0.13-0.05
					c-0.03-0.04-0.05-0.08-0.05-0.13c0-0.05,0.02-0.09,0.05-0.13c0.04-0.03,0.08-0.05,0.13-0.05h5.19c0.06,0,0.1,0.01,0.13,0.04
					c0.03,0.04,0.05,0.08,0.05,0.13c0,0.05-0.02,0.09-0.05,0.13c-0.03,0.04-0.07,0.05-0.13,0.05h-1.95
					c-0.16,0.27-0.32,0.52-0.48,0.75v0.01v4.07c0,0.06-0.02,0.1-0.05,0.14c-0.03,0.03-0.07,0.05-0.13,0.05
					c-0.05,0-0.09-0.02-0.13-0.05c-0.03-0.04-0.05-0.08-0.05-0.14V46.8C153.1,47.02,152.91,47.22,152.72,47.42z M154.01,46.96
					c-0.01-0.05,0-0.09,0.03-0.13c0.03-0.04,0.07-0.07,0.12-0.07c0.05-0.01,0.1,0.01,0.14,0.04c0.61,0.42,1.26,1.03,1.97,1.81
					c0.04,0.05,0.06,0.1,0.06,0.15c0,0.05-0.02,0.09-0.06,0.13c-0.04,0.04-0.09,0.05-0.14,0.05c-0.05,0-0.1-0.03-0.14-0.08
					c-0.69-0.78-1.32-1.37-1.9-1.78C154.04,47.05,154.01,47.01,154.01,46.96z"/>
			</g>
			<g>
				<circle class="st2" cx="165.04" cy="47.92" r="4.49"/>
				<path class="st3" d="M163.54,50.56c0,0.06-0.02,0.1-0.05,0.14c-0.03,0.03-0.07,0.05-0.13,0.05c-0.05,0-0.09-0.02-0.13-0.05
					c-0.03-0.04-0.05-0.08-0.05-0.14v-2.09c-0.38,0.79-0.65,1.2-0.81,1.21c-0.05,0.01-0.09,0-0.13-0.03
					c-0.04-0.03-0.06-0.07-0.07-0.12c-0.01-0.05,0.01-0.1,0.05-0.14c0.39-0.5,0.69-1,0.88-1.5h-0.61c-0.06,0-0.1-0.02-0.13-0.05
					c-0.03-0.04-0.05-0.08-0.05-0.13c0-0.05,0.02-0.09,0.05-0.13c0.04-0.03,0.08-0.05,0.13-0.05h0.69V45.7
					c-0.44,0.1-0.68,0.13-0.72,0.1c-0.04-0.03-0.06-0.07-0.07-0.12c-0.01-0.05,0-0.09,0.03-0.13c0.03-0.04,0.07-0.06,0.12-0.07
					c0.65-0.13,1.12-0.25,1.39-0.37c0.05-0.02,0.1-0.02,0.14-0.01c0.04,0.02,0.07,0.05,0.1,0.1c0.02,0.05,0.02,0.1,0.01,0.14
					c-0.01,0.04-0.04,0.07-0.1,0.1c-0.14,0.06-0.31,0.12-0.53,0.18v1.93h0.51c0.06,0,0.1,0.01,0.13,0.04
					c0.03,0.04,0.05,0.08,0.05,0.13c0,0.05-0.02,0.09-0.05,0.13c-0.03,0.04-0.07,0.05-0.13,0.05h-0.51c0.5,0.63,0.74,0.98,0.73,1.05
					c-0.01,0.05-0.03,0.09-0.07,0.11c-0.05,0.03-0.1,0.04-0.13,0.03c-0.04-0.01-0.08-0.04-0.12-0.1c-0.11-0.18-0.25-0.38-0.41-0.6
					V50.56z M162.36,46.26c0.02-0.05,0.05-0.08,0.1-0.1c0.05-0.02,0.1-0.02,0.14,0c0.04,0.02,0.08,0.06,0.1,0.11
					c0.1,0.22,0.17,0.48,0.21,0.8c0.01,0.06,0,0.11-0.02,0.15c-0.03,0.04-0.07,0.07-0.13,0.07c-0.05,0.01-0.1,0-0.13-0.03
					c-0.04-0.03-0.06-0.07-0.07-0.14c-0.04-0.28-0.1-0.51-0.19-0.72C162.35,46.35,162.35,46.3,162.36,46.26z M163.94,45.98
					c0.03-0.03,0.07-0.05,0.12-0.05c0.05,0,0.1,0.02,0.13,0.05c0.03,0.04,0.05,0.09,0.04,0.14c-0.06,0.64-0.13,1-0.22,1.07
					c-0.04,0.02-0.08,0.03-0.13,0.02c-0.05-0.01-0.08-0.04-0.11-0.07c-0.03-0.05-0.03-0.1-0.02-0.15c0.05-0.24,0.09-0.53,0.13-0.88
					C163.89,46.06,163.91,46.01,163.94,45.98z M164.65,49.95c-0.06,0-0.1-0.02-0.13-0.05c-0.03-0.04-0.05-0.08-0.05-0.13
					c0-0.05,0.02-0.09,0.05-0.13c0.04-0.03,0.08-0.05,0.13-0.05h1.31v-0.51h-1.24c-0.06,0-0.1-0.02-0.13-0.05
					c-0.03-0.04-0.05-0.08-0.05-0.13c0-0.05,0.02-0.09,0.05-0.13c0.04-0.03,0.08-0.05,0.13-0.05h0.66c-0.03-0.12-0.09-0.32-0.19-0.6
					h-0.62c-0.06,0-0.1-0.02-0.13-0.05c-0.03-0.04-0.05-0.08-0.05-0.13c0-0.05,0.02-0.09,0.05-0.13c0.04-0.03,0.08-0.05,0.13-0.05
					h1.38v-0.46h-1.24c-0.06,0-0.1-0.02-0.13-0.05c-0.03-0.04-0.05-0.08-0.05-0.13c0-0.05,0.02-0.09,0.05-0.13
					c0.04-0.03,0.08-0.05,0.13-0.05h1.24v-0.41h-1.1c-0.1-0.01-0.19-0.04-0.25-0.09c-0.06-0.07-0.09-0.15-0.09-0.23v-0.6
					c0-0.09,0.03-0.17,0.09-0.23c0.06-0.07,0.15-0.11,0.25-0.11h2.54c0.1,0,0.18,0.04,0.24,0.11c0.06,0.07,0.08,0.15,0.08,0.23v0.6
					c0,0.08-0.03,0.16-0.1,0.23c-0.06,0.06-0.13,0.09-0.23,0.1h-1.09v0.41h1.21c0.06,0,0.1,0.01,0.13,0.04
					c0.03,0.04,0.05,0.08,0.05,0.13c0,0.05-0.02,0.09-0.05,0.13c-0.03,0.04-0.07,0.05-0.13,0.05h-1.21v0.46h1.42
					c0.06,0,0.1,0.01,0.13,0.04c0.03,0.04,0.05,0.08,0.05,0.13c0,0.05-0.02,0.09-0.05,0.13c-0.03,0.04-0.07,0.05-0.13,0.05h-0.68
					c-0.02,0.07-0.04,0.16-0.07,0.28c-0.03,0.12-0.06,0.22-0.09,0.32h0.62c0.06,0,0.1,0.01,0.13,0.04c0.03,0.04,0.05,0.08,0.05,0.13
					c0,0.05-0.02,0.09-0.05,0.13c-0.03,0.04-0.07,0.05-0.13,0.05h-1.21v0.51h1.42c0.06,0,0.1,0.01,0.13,0.04
					c0.03,0.04,0.05,0.08,0.05,0.13c0,0.05-0.02,0.09-0.05,0.13c-0.03,0.04-0.07,0.05-0.13,0.05h-1.42v0.59
					c0,0.06-0.02,0.1-0.05,0.14c-0.03,0.03-0.07,0.05-0.13,0.05c-0.05,0-0.09-0.02-0.13-0.05c-0.03-0.04-0.05-0.08-0.05-0.14v-0.59
					H164.65z M165.5,45.64h-0.45c-0.06,0-0.1,0.01-0.13,0.04c-0.03,0.04-0.04,0.08-0.04,0.13v0.24c0,0.06,0.02,0.09,0.05,0.11
					c0.03,0.02,0.07,0.04,0.13,0.04h0.45V45.64z M166.54,48.73c0.04-0.12,0.1-0.32,0.17-0.6h-1.15c0.09,0.27,0.15,0.47,0.17,0.6
					H166.54z M166.46,45.64h-0.6v0.56h0.6V45.64z M166.81,46.2h0.41c0.05,0,0.09-0.01,0.1-0.04c0.02-0.03,0.04-0.06,0.04-0.1v-0.24
					c0-0.05-0.01-0.09-0.03-0.13c-0.02-0.03-0.06-0.05-0.11-0.05h-0.41V46.2z"/>
			</g>
			<g>
				<circle class="st2" cx="176.59" cy="47.92" r="4.49"/>
				<path class="st3" d="M173.98,48.63c-0.06,0-0.1-0.02-0.13-0.05c-0.03-0.04-0.05-0.08-0.05-0.13c0-0.05,0.02-0.09,0.05-0.13
					c0.04-0.03,0.08-0.05,0.13-0.05h2.74c-0.02-0.38-0.06-0.74-0.12-1.06h-2.31c-0.06,0-0.1-0.02-0.13-0.05
					c-0.03-0.04-0.05-0.08-0.05-0.13c0-0.05,0.02-0.09,0.05-0.13c0.04-0.03,0.08-0.05,0.13-0.05h2.23c0-0.02-0.01-0.03-0.01-0.03
					c-0.08-0.3-0.2-0.63-0.36-0.98c-0.72,0.08-1.33,0.13-1.82,0.16c-0.06,0-0.1-0.01-0.13-0.04c-0.03-0.03-0.05-0.07-0.05-0.13
					c0-0.05,0.01-0.1,0.04-0.13c0.03-0.03,0.07-0.05,0.13-0.05c0.66-0.04,1.42-0.12,2.28-0.23c0.87-0.11,1.52-0.22,1.96-0.34
					c0.06-0.01,0.1,0,0.14,0.01c0.04,0.02,0.06,0.05,0.08,0.1c0.01,0.06,0.01,0.1-0.01,0.14c-0.06,0.13-0.67,0.27-1.82,0.4
					c-0.16,0.02-0.3,0.04-0.44,0.06c0.17,0.38,0.29,0.73,0.36,1.05h2.09c0.06,0,0.1,0.01,0.13,0.04c0.03,0.04,0.05,0.08,0.05,0.13
					c0,0.05-0.02,0.09-0.05,0.13c-0.03,0.04-0.07,0.05-0.13,0.05h-2.02c0.05,0.32,0.08,0.67,0.11,1.06h2.17
					c0.06,0,0.1,0.01,0.13,0.04c0.03,0.04,0.05,0.08,0.05,0.13c0,0.05-0.02,0.09-0.05,0.13c-0.03,0.04-0.07,0.05-0.13,0.05h-2.16
					c0.02,0.43-0.01,0.84-0.08,1.25c-0.09,0.41-0.26,0.67-0.51,0.79c-0.13,0.06-0.31,0.08-0.56,0.08c-0.22-0.01-0.58-0.12-1.07-0.33
					c-0.06-0.02-0.1-0.05-0.11-0.1c-0.01-0.04-0.01-0.09,0.01-0.14c0.03-0.08,0.07-0.12,0.13-0.12c0.02,0,0.22,0.06,0.59,0.19
					c0.33,0.1,0.61,0.11,0.86,0.04c0.15-0.05,0.25-0.18,0.3-0.39c0.1-0.42,0.13-0.84,0.11-1.26H173.98z"/>
			</g>
		</g>
	</g>
</g>
</svg>
